<svg width="663" height="160" viewBox="0 0 663 160" fill="none" xmlns="http://www.w3.org/2000/svg">
<g clip-path="url(#clip0_1841_5627)">
<path d="M43.2968 56.9244C41.5369 49.8029 34.2445 45.5372 28.085 45.5372C18.5747 45.5372 13.4639 54.1529 13.4639 68.155C13.4639 82.1571 16.8149 90.8693 26.8435 90.8693C37.3784 90.8693 39.1503 85.8565 41.8745 77.7589L53.1567 81.7113C49.7214 95.1711 40.3918 101.859 28.3382 101.859C12.3189 101.859 0 90.4234 0 68.7696C0 45.4408 12.8492 33.4751 28.6998 33.4751C36.3539 33.4751 49.3477 37.9938 53.1205 51.3573L43.2968 56.9244Z" fill="#9E2C3A"/>
<path d="M80.5675 68.1788C80.5675 83.5787 86.5461 90.7966 96.1529 90.7966C105.76 90.7966 111.461 83.3136 111.461 68.2631C111.461 52.4174 105.386 45.2115 95.7913 45.2115C86.1965 45.2115 80.5675 53.044 80.5675 68.1788ZM124.937 68.5282C124.937 90.1821 114.016 102.148 96.2372 102.148C78.4581 102.148 67.1035 90.4472 67.1035 68.1788C67.1035 45.9104 78.892 33.8604 94.7426 33.8604C114.101 33.8604 124.937 46.0911 124.937 68.5403" fill="#9E2C3A"/>
<path d="M189.195 77.3249C189.195 93.3273 180.661 102.22 165.257 102.22C148.357 102.22 139.992 94.1226 139.992 77.59V35.2583H152.166V75.3848C152.166 85.1574 156.723 90.3509 164.425 90.3509C172.127 90.3509 177.009 85.1574 177.009 75.3848V35.2583H189.183V77.3249H189.195Z" fill="#9E2C3A"/>
<path d="M232.49 64.3832C240.156 64.3832 245.749 65.7448 245.749 55.2372C245.749 49.9593 241.109 46.6094 232.49 46.6094H221.317V64.3832H232.49ZM207.407 100.991V35.2583H225.391C239.867 35.2583 243.652 35.8729 250.185 38.6082C255.007 40.6326 260.214 45.7298 260.214 54.8878C260.214 69.6008 254.175 71.9988 244.99 75.5174L262.829 101.003H249.353L233.406 76.7465H220.629V101.003H207.395L207.407 100.991Z" fill="#9E2C3A"/>
<path d="M632.65 64.3832C640.316 64.3832 645.897 65.7448 645.897 55.2372C645.897 49.9593 641.268 46.6094 632.65 46.6094H621.488V64.3832H632.65ZM607.578 100.991V35.2583H625.562C640.051 35.2583 643.836 35.8729 650.369 38.6082C655.19 40.6326 660.397 45.7298 660.397 54.8878C660.397 69.6008 654.358 71.9988 645.186 75.5174L663.013 101.003H649.537L633.602 76.7465H620.813V101.003H607.59L607.578 100.991Z" fill="#9E2C3A"/>
<path d="M293.52 100.991L270.533 35.2583H283.25L300.378 83.4342L317.591 35.2583H330.223L307.225 100.991H293.52Z" fill="#9E2C3A"/>
<path d="M351.63 68.1788C351.63 83.5787 357.404 90.7966 366.649 90.7966C375.894 90.7966 381.415 83.3136 381.415 68.2631C381.415 52.4174 375.569 45.2115 366.312 45.2115C357.054 45.2115 351.63 53.044 351.63 68.1788ZM394.385 68.5282C394.385 90.1821 383.874 102.148 366.733 102.148C349.593 102.148 338.648 90.4472 338.648 68.1788C338.648 45.9104 350.015 33.8604 365.287 33.8604C383.946 33.8604 394.385 46.0911 394.385 68.5403" fill="#9E2C3A"/>
<path d="M423.422 35.2583H410.477V100.991H423.422V35.2583Z" fill="#9E2C3A"/>
<path d="M483.846 53.1404C480.808 48.9952 471.864 45.6332 466.103 45.6332C459.316 45.6332 454.905 47.4407 454.905 51.9474C454.905 55.7311 457.918 56.0685 470.671 59.7679C483.532 63.4672 494.465 69.0585 494.465 81.3013C494.465 92.1222 484.943 102.22 467.224 102.22C455.809 102.22 446.672 99.7498 438.439 90.0014L444.744 81.964C448.794 87.4588 459.533 91.3148 468.14 91.3148C476.047 91.3148 479.856 87.1576 479.856 82.4822C479.856 76.0354 479.904 76.0354 462.282 70.9985C446.986 66.5882 441.308 60.5873 441.308 51.9233C441.308 39.8372 451.542 33.1133 466.211 33.1133C475.095 33.1133 484.967 35.3546 490.644 43.9101L483.822 53.1283L483.846 53.1404Z" fill="#9E2C3A"/>
<path d="M524.334 35.2583H511.4V100.991H524.334V35.2583Z" fill="#9E2C3A"/>
<path d="M545.814 100.991V35.2583H589.907V46.6215H558.748V61.0453H584.254V71.7819H558.748V89.652H589.907V100.991H545.814Z" fill="#9E2C3A"/>
<path d="M179.804 13.5319L176.767 3.87988H174.271V16.7493H175.923V6.35013L179.129 16.7493H180.491L183.685 6.35013V16.7493H185.337V3.87988H182.805L179.804 13.5319Z" fill="black"/>
<path d="M194.764 11.2665H191.522L193.149 5.47048L194.776 11.2665H194.764ZM191.968 3.87988L188.002 16.7493H189.882L191.052 12.8571H195.222L196.391 16.7493H198.272L194.318 3.87988H191.968Z" fill="black"/>
<path d="M334.538 11.2665H331.295L332.922 5.47048L334.55 11.2665H334.538ZM331.741 3.87988L327.775 16.7493H329.656L330.825 12.8571H334.996L336.165 16.7493H338.045L334.092 3.87988H331.741Z" fill="black"/>
<path d="M203.044 3.87988H201.26V16.7493H203.044V3.87988Z" fill="black"/>
<path d="M211.482 9.18213C209.94 8.60373 208.602 8.10968 208.614 7.02518C208.626 5.90453 209.385 5.28998 210.735 5.28998C212.085 5.28998 213.11 6.04913 213.435 7.31438L213.483 7.50718L215.135 7.14568L215.074 6.92878C214.411 4.85618 212.881 3.71143 210.771 3.71143C208.481 3.71143 206.818 5.14538 206.818 7.12158C206.818 9.33878 208.903 10.11 210.735 10.7968C212.326 11.3873 213.833 11.9416 213.833 13.3032C213.833 14.5805 212.881 15.3397 211.29 15.3397C209.843 15.3397 208.831 14.5564 208.216 12.9538L208.144 12.761L206.492 13.3514L206.577 13.5563C207.264 15.1228 208.421 16.9182 211.217 16.9182C214.014 16.9182 215.617 15.4722 215.617 13.0502C215.617 10.6281 213.411 9.89308 211.47 9.17008" fill="black"/>
<path d="M226.355 10.3148C226.355 12.6043 225.789 15.3397 223.077 15.3397C220.364 15.3397 219.798 12.6043 219.798 10.3148C219.798 8.02533 220.364 5.28998 223.077 5.28998C225.789 5.28998 226.355 8.02533 226.355 10.3148ZM223.077 3.71143C219.858 3.71143 218.002 6.12143 218.002 10.3148C218.002 14.5082 219.846 16.9182 223.077 16.9182C226.307 16.9182 228.151 14.5082 228.151 10.3148C228.151 6.12143 226.307 3.71143 223.077 3.71143Z" fill="black"/>
<path d="M238.868 13.0258L233.685 3.87988H231.371V16.7493H233.022V6.14528L239.001 16.6529L239.061 16.7493H240.52V3.87988H238.868V13.0258Z" fill="black"/>
<path d="M250.705 16.7493H252.501V10.8086H256.949V9.23009H252.501V5.45843H258.504V3.87988H250.705V16.7493Z" fill="black"/>
<path d="M268.689 10.3148C268.689 12.6043 268.123 15.3397 265.411 15.3397C262.698 15.3397 262.132 12.6043 262.132 10.3148C262.132 8.02533 262.698 5.28998 265.411 5.28998C268.123 5.28998 268.689 8.02533 268.689 10.3148ZM265.411 3.71143C262.192 3.71143 260.336 6.12143 260.336 10.3148C260.336 14.5082 262.18 16.9182 265.411 16.9182C268.641 16.9182 270.485 14.5082 270.485 10.3148C270.485 6.12143 268.641 3.71143 265.411 3.71143Z" fill="black"/>
<path d="M281.2 13.0258L276.005 3.87988H273.703V16.7493H275.354V6.14528L281.321 16.6529L281.381 16.7493H282.852V3.87988H281.2V13.0258Z" fill="black"/>
<path d="M288.686 5.45843H290.422C293.134 5.45843 294.496 7.09723 294.496 10.3146C294.496 13.5319 293.098 15.1707 290.35 15.1707H288.686V5.45843ZM290.458 3.87988H286.902V16.7493H290.386C294.026 16.7493 296.292 14.2911 296.292 10.3146C296.292 6.33808 294.11 3.87988 290.458 3.87988Z" fill="black"/>
<path d="M301.222 10.8207H305.549V9.23009H301.222V5.45843H307.309V3.87988H299.426V16.7493H307.658V15.1707H301.222V10.8207Z" fill="black"/>
<path d="M303.427 0L301.643 2.85585H303.258L305.885 0H303.427Z" fill="black"/>
<path d="M312.635 10.8207H316.975V9.23009H312.635V5.45843H318.735V3.87988H310.852V16.7493H319.072V15.1707H312.635V10.8207Z" fill="black"/>
<path d="M350.785 13.7006C350.785 15.1707 350.038 15.3394 349.472 15.3394C348.809 15.3394 348.17 14.9538 347.784 14.3272L347.676 14.1465L346.277 15.0502L346.41 15.231C347.061 16.0624 347.929 16.918 349.508 16.918C351.545 16.918 352.581 15.713 352.581 13.3271V3.87988H350.797V13.7006H350.785Z" fill="black"/>
<path d="M361.864 11.2665H358.621L360.248 5.47048L361.876 11.2665H361.864ZM359.067 3.87988L355.102 16.7493H356.982L358.151 12.8571H362.322L363.491 16.7493H365.371L361.418 3.87988H359.067Z" fill="black"/>
<path d="M369.698 5.45843H371.976C373.881 5.45843 374.688 6.04888 374.688 7.43464C374.688 8.82039 373.832 9.50724 371.988 9.50724H369.686V5.45843H369.698ZM376.484 7.36234C376.484 5.14513 374.893 3.87988 372.121 3.87988H367.914V16.7493H369.698V11.0858H372.277L374.797 16.7493H376.749L374.073 10.7243C375.653 10.1338 376.484 8.97704 376.484 7.36234Z" fill="black"/>
<path d="M387.935 13.0258L382.752 3.87988H380.438V16.7493H382.089V6.14528L388.055 16.6529L388.116 16.7493H389.586V3.87988H387.935V13.0258Z" fill="black"/>
<path d="M399.012 11.2665H395.77L397.397 5.47048L399.024 11.2665H399.012ZM396.216 3.87988L392.25 16.7493H394.13L395.3 12.8571H399.47L400.639 16.7493H402.52L398.554 3.87988H396.204H396.216Z" fill="black"/>
<path d="M411.97 12.532C411.488 14.4841 410.608 15.3517 409.125 15.3517C407.004 15.3517 405.847 13.5683 405.847 10.3269C405.847 7.08543 406.968 5.30203 408.848 5.30203C410.427 5.30203 411.271 6.07323 411.753 7.97713L411.813 8.18198L413.477 7.68793L413.429 7.49513C412.826 5.02488 411.307 3.71143 409.017 3.71143C405.907 3.71143 404.051 6.18168 404.051 10.3148C404.051 14.448 405.859 16.9182 409.017 16.9182C411.416 16.9182 412.958 15.5566 413.597 12.8574L413.646 12.6525L412.006 12.3272L411.958 12.52L411.97 12.532Z" fill="black"/>
<path d="M422.964 10.8207H427.291V9.23009H422.964V5.45843H429.051V3.87988H421.168V16.7493H429.401V15.1707H422.964V10.8207Z" fill="black"/>
<path d="M440.079 3.87988V13.0258L434.896 3.87988H432.594V16.7493H434.245V6.14528L440.212 16.6529L440.272 16.7493H441.73V3.87988H440.079Z" fill="black"/>
<path d="M453.82 3.57861H452.012V16.8336H453.82V3.57861Z" fill="black"/>
<path d="M461.643 15.3154C460.113 15.3154 458.931 14.2309 458.931 12.797C458.931 11.363 460.125 10.2544 461.643 10.2544C463.162 10.2544 464.356 11.3992 464.356 12.797C464.356 14.1948 463.198 15.3154 461.643 15.3154ZM461.643 4.98857C462.668 4.98857 463.427 5.74772 463.427 6.77197C463.427 7.79622 462.632 8.55537 461.643 8.55537C460.655 8.55537 459.86 7.79622 459.86 6.77197C459.86 5.74772 460.619 4.98857 461.643 4.98857ZM463.789 9.21812C464.826 8.51922 465.344 7.66367 465.344 6.60327C465.344 4.80782 463.825 3.36182 461.643 3.36182C459.462 3.36182 457.943 4.80782 457.943 6.60327C457.943 7.82032 458.642 8.65177 459.498 9.21812C457.943 9.88087 457.111 11.1461 457.111 12.8211C457.111 15.3275 458.956 17.0627 461.643 17.0627C464.331 17.0627 466.176 15.3154 466.176 12.8211C466.176 11.1461 465.344 9.88087 463.789 9.21812Z" fill="black"/>
<path d="M484.196 15.3154C482.665 15.3154 481.484 14.2309 481.484 12.797C481.484 11.363 482.677 10.2544 484.196 10.2544C485.715 10.2544 486.908 11.3992 486.908 12.797C486.908 14.1948 485.751 15.3154 484.196 15.3154ZM484.196 4.98857C485.221 4.98857 485.98 5.74772 485.98 6.77197C485.98 7.79622 485.185 8.55537 484.196 8.55537C483.208 8.55537 482.412 7.79622 482.412 6.77197C482.412 5.74772 483.172 4.98857 484.196 4.98857ZM486.342 9.21812C487.39 8.51922 487.897 7.66367 487.897 6.60327C487.897 4.80782 486.378 3.36182 484.196 3.36182C482.015 3.36182 480.496 4.79577 480.496 6.60327C480.496 7.82032 481.195 8.65177 482.051 9.21812C480.496 9.88087 479.664 11.1461 479.664 12.8211C479.664 15.3275 481.508 17.0627 484.196 17.0627C486.896 17.0627 488.728 15.3154 488.728 12.8211C488.728 11.1582 487.897 9.88087 486.342 9.21812Z" fill="black"/>
<path d="M477.591 7.47087C477.591 5.09702 475.807 3.36182 473.252 3.36182C470.696 3.36182 468.78 5.18137 468.78 7.65162C468.78 8.86867 469.25 9.90497 470.094 10.6521L471.432 9.57962C470.913 9.10967 470.624 8.44692 470.624 7.61547C470.624 6.13332 471.709 5.06087 473.179 5.06087C474.65 5.06087 475.723 6.09717 475.723 7.51907C475.723 8.55537 475.265 9.39887 474.3 10.1701L470.311 13.3633C469.165 14.3032 468.623 15.3877 468.623 16.8458H477.531V15.0865H470.829L475.048 11.8089C476.759 10.4834 477.591 9.16992 477.591 7.48292" fill="black"/>
<path d="M330.102 0L332.741 2.85585H334.357L332.561 0H330.102Z" fill="black"/>
<path d="M184.506 96.9543C181.962 96.9061 176.815 100.569 170.608 106.884L171.729 107.04C172.187 107.088 172.693 107.185 173.296 107.233C174.73 107.438 174.935 107.438 175.791 107.582C175.381 107.679 175.08 107.739 174.971 107.739C174.622 107.787 174.007 107.787 173.235 107.787C171.753 107.739 171.042 107.679 169.716 107.486C169.463 107.787 169.306 107.944 169.306 107.944C168.944 108.342 168.028 109.318 166.401 110.848C165.991 111.306 164.569 112.836 162.074 115.427C160.953 116.644 159.784 117.873 158.566 119.138C156.312 121.331 156.119 121.536 154.95 122.85C157.807 122.187 161.17 120.813 165.34 118.729C171.705 115.463 174.971 112.921 181.275 106.414C184.385 103.1 186.374 100.087 186.422 98.557C186.422 97.605 185.663 96.9905 184.494 96.9302M163.822 107.594C141.92 107.594 123.068 113.403 122.923 120.223C122.875 123.488 128.01 125.766 135.712 125.935C139.533 125.983 144.825 125.465 148.851 124.609H148.959L149.984 123.392L152.78 120.03C153.6 119.078 154.926 117.488 156.867 115.451C158.747 113.403 160.181 111.932 161.097 111.077L163.846 108.366L164.557 107.607H163.846L163.822 107.594ZM117.728 134.948C113.907 134.84 111.207 135.599 111.159 136.78C111.159 138.25 114.667 139.165 120.778 139.274C124.189 139.37 128.215 138.756 130.71 137.744C125.153 135.864 121.224 134.996 117.716 134.948M165.859 132.249L161.423 135.816C157.096 139.286 151.491 141.166 145.994 141.069C143.137 141.009 139.666 140.455 137.532 139.792L133.916 138.575L132.747 138.274C128.167 139.708 124.442 140.358 120.778 140.31C113.907 140.166 110.496 139.045 110.496 136.804C110.544 135.117 113.642 134.104 118.644 134.201C121.453 134.249 125.515 134.659 129.698 135.37L133.977 136.081L134.941 136.177C139.678 133.996 142.933 131.538 147.477 126.609L148.55 125.537L147.73 125.694C143.499 126.405 139.425 126.718 136.17 126.658C127.311 126.501 122.068 124.067 122.116 120.139C122.26 112.909 139.63 106.486 158.988 106.486L164.894 106.582L165.762 106.63C173.199 100.22 180.685 96.147 184.506 96.2434C186.241 96.2916 187.206 97.0507 187.157 98.3762C187.109 101.172 181.866 107.691 175.236 113.246C169.885 117.668 162.351 121.597 154.203 124.043L153.648 124.187L152.889 124.91L150.996 126.79C147.79 129.995 142.233 133.924 137.291 136.514C139.738 137.081 143.861 137.539 147.272 137.587C155.324 137.732 161.543 135.237 167.799 129.694L167.341 131.176L165.871 132.249H165.859Z" fill="black"/>
<path d="M182.192 121.151C180.203 121.09 174.815 126.296 170.427 132.405C176.743 130.369 183.216 124.922 183.264 121.97C183.264 121.452 182.854 121.211 182.192 121.151ZM167.366 130.104C174.296 123.994 180.046 120.271 182.445 120.331C183.409 120.331 184.072 120.994 184.024 121.85C183.975 123.537 181.926 126.284 178.925 128.682C175.815 131.176 172.5 132.863 169.499 133.466L168.884 134.08C168.282 134.948 167.92 135.55 167.763 135.816C167.619 136.02 167.209 136.731 166.498 137.912L166.293 138.262C167.161 139.177 168.028 139.635 168.945 139.635C170.475 139.635 172.705 138.455 177.346 135.105L182.228 131.538C183.397 130.67 185.024 129.694 187.122 128.586C187.266 128.477 187.531 128.332 187.929 128.128L187.471 128.381C185.181 129.911 183.963 130.779 178.202 135.105C172.91 139.081 170.668 140.346 168.884 140.298C166.847 140.298 165.316 138.623 165.316 136.539C165.365 135.321 165.871 133.634 166.895 131.598L167.353 130.128L167.366 130.104Z" fill="black"/>
<path d="M246.438 95.4361C243.171 95.3758 235.083 99.0993 228.972 103.522L229.937 103.618C230.238 103.666 232.179 103.775 235.746 104.136L242.219 104.739L243.69 104.907C247.354 100.979 248.68 99.039 248.728 97.3641C248.728 96.0988 248.017 95.4843 246.438 95.4361ZM235.433 104.956C231.262 104.498 230.491 104.437 227.851 104.341C223.524 106.631 215.267 113.812 209.771 120.078L208.746 121.247C220.053 119.765 234.421 113.15 242.677 105.667C240.122 105.462 239.266 105.413 235.445 104.956M220.053 103.931C201.924 103.63 186.941 108.812 186.845 115.644C186.796 119.114 192.498 121.753 200.333 121.91C200.947 121.958 201.514 121.91 202.683 121.85C207.782 115.186 215.617 108.462 223.15 104.184C221.776 103.98 221.27 103.931 220.04 103.931M356.199 98.8462C346.267 108.366 329.512 112.692 304.247 112.137C292.833 111.933 274.198 110.246 257.949 107.956L244.401 106.016L243.485 105.908C237.88 110.655 231.817 114.463 226.067 116.909C220.004 119.452 211.76 121.789 207.987 122.055C202.888 128.068 199.176 135.346 199.127 139.515C199.031 143.479 201.779 146.143 206.155 146.191C209.216 146.251 213.592 144.564 217.762 141.66C223.524 137.587 227.441 132.237 227.598 128.212C227.598 125.814 225.959 124.296 223.114 124.248C219.546 124.151 214.857 126.284 211.29 129.538C208.999 131.683 207.782 133.767 207.722 135.755C207.722 137.226 208.999 138.298 210.783 138.346C211.952 138.346 213.592 137.985 215.255 137.226L217.196 136.358L218.317 135.804C215.725 137.936 212.917 139.117 210.627 139.069C208.493 139.069 207.01 137.635 207.059 135.599C207.059 133.514 208.481 131.164 210.819 128.923C214.845 125.308 220.45 122.766 224.32 122.862C227.478 122.91 229.515 124.802 229.406 127.598C229.406 129.851 227.875 132.948 225.537 135.647C219.57 142.576 211.736 147.143 205.926 146.998C200.465 146.853 197.211 142.624 197.319 135.948C197.416 131.369 198.79 127.453 201.839 122.814L200.212 122.717C190.485 122.199 185.651 119.705 185.7 115.331C185.904 108.101 201.381 102.907 221.354 103.257C222.222 103.317 222.837 103.353 224.259 103.413C232.962 98.3763 242.593 94.5926 246.679 94.7613C248.367 94.7613 249.536 95.8819 249.476 97.4123C249.427 99.1475 248.005 101.389 244.738 105.004L245.859 105.1L254.719 106.173C270.365 108.004 291.193 109.643 300.463 109.836C310.443 110.101 321.086 109.535 329.596 108.354C341.216 106.835 346.917 104.787 355.476 99.1957L356.548 98.4847L356.199 98.8342V98.8462Z" fill="black"/>
<path d="M247.678 120.994C247.015 120.994 245.991 121.56 245.135 122.271C243.496 123.537 242.182 125.718 242.182 127.055C242.182 127.863 242.941 128.574 244.014 128.574H244.966L245.677 127.453L246.955 125.718C247.051 125.525 247.365 124.959 247.919 123.886C248.281 123.127 248.474 122.464 248.474 122.055C248.522 121.5 248.112 120.982 247.666 120.982M244.014 129.2C242.278 129.2 241.362 128.586 241.41 127.152C241.41 126.887 241.471 126.597 241.712 125.874C241.772 125.718 241.82 125.404 241.917 125.163C237.891 128.718 233.25 134.779 231.273 139.057C231.731 139.563 232.045 139.672 232.695 139.672C234.479 139.672 238.65 136.719 241.157 133.514L244.207 129.586L244.508 129.188H244.002L244.014 129.2ZM251.74 126.332C251.282 126.646 250.366 127.152 250.113 127.308C247.919 128.429 246.702 128.935 245.219 129.14C241.097 135.551 235.492 140.443 232.442 140.334C230.658 140.274 229.489 139.009 229.586 136.912C229.634 133.707 231.876 129.73 235.287 126.826C237.686 124.85 240.325 123.211 244.508 121.223C245.738 120.717 246.846 120.355 247.714 120.355H247.763C248.63 120.355 249.281 120.97 249.281 121.826C249.233 122.645 248.365 124.537 247.449 126.055L246.437 127.429L245.774 128.188C247.401 127.887 250.209 126.501 254.127 124.224L251.728 126.308L251.74 126.332Z" fill="black"/>
<path d="M262.759 121.344C261.481 121.295 260.468 122.006 258.431 124.151L253.598 129.236C251.042 131.936 248.198 136.057 246.98 138.852C246.98 139.563 247.33 139.925 248.005 139.925C248.969 139.925 251.163 138.563 253.043 136.72C255.538 134.273 258.853 130.2 261.397 126.585C262.614 124.85 263.434 123.115 263.434 122.308C263.434 121.79 263.132 121.344 262.771 121.344M252.26 141.467C252.055 141.564 250.934 142.226 248.897 143.443L243.846 146.552C239.218 149.3 236.723 151.746 236.723 153.373C236.674 154.023 237.181 154.541 237.844 154.541C242.219 154.638 248.234 149.348 253.272 141.058C252.766 141.299 252.404 141.395 252.248 141.467M253.489 124.609C258.889 121.512 261.228 120.44 262.71 120.44C263.687 120.488 264.35 121.091 264.289 122.067C264.289 123.043 263.94 123.85 262.457 126.393L262.759 126.453C265.507 123.296 267.604 121.561 270.352 120.44C270.147 120.681 270.051 120.85 270.051 120.85C269.991 120.946 269.28 121.765 268.062 123.187C265.929 125.682 262.108 131.49 260.022 135.502L259.504 136.069L258.998 137.033C254.056 147.07 244.582 155.156 238.169 155.06C236.747 155.06 235.879 154.3 235.879 153.18C235.939 150.685 239.603 147.637 248.608 142.588C250.946 141.311 252.585 140.347 253.453 139.84C253.501 139.744 253.767 139.587 254.225 139.286C254.369 139.081 254.526 138.876 254.574 138.816C254.779 138.623 255.129 137.9 255.743 136.792L257.021 134.599L258.142 132.502L258.6 131.839H258.347C254.273 137.033 250.199 140.395 247.908 140.347C246.534 140.347 245.92 139.383 245.92 137.394C246.016 133.779 247.848 130.068 251.054 126.863L253.501 124.621L253.489 124.609Z" fill="black"/>
<path d="M289.553 133.719C289.095 134.08 288.782 134.333 288.589 134.478C284.105 137.948 280.947 139.684 279.115 139.684C277.644 139.623 276.873 138.804 276.933 137.225C276.981 135.707 278.5 133.104 281.369 129.682L285.033 125.308L286.817 123.115C287.227 122.609 287.528 122.103 287.528 121.741C287.528 121.44 287.179 121.235 286.66 121.235C285.395 121.187 284.226 121.994 280.959 125.212C277.801 128.308 277.343 128.766 272.955 133.96C270.159 137.31 269.906 137.623 268.64 139.455C267.869 139.141 267.567 139.141 266.953 139.141C265.422 139.093 264.409 139.455 263.035 140.31L263.795 139.443C265.88 136.84 267.266 135.213 267.869 134.406C268.58 133.442 269.858 131.658 271.738 128.959L274.028 125.754C275.354 123.874 275.812 122.898 275.86 121.994C275.86 121.681 275.812 121.536 275.607 121.283C275.354 121.548 275.197 121.693 275.101 121.838C274.595 122.308 273.775 123.211 272.401 124.693C267.616 129.983 262.059 134.828 258.744 136.659L259.72 135.129L260.793 134.309C262.625 132.936 263.795 132.02 264.144 131.719C266.748 129.574 269.339 127.031 272.039 123.97C274.233 121.536 274.438 121.271 275.511 120.355C276.523 120.464 277.09 121.476 277.09 123.103C277.042 125.501 275.704 128.345 272.244 133.189H272.75L273.462 132.369C280.393 124.067 284.623 120.355 286.95 120.404C288.179 120.452 288.987 121.524 288.939 123.006C288.939 124.838 287.866 127.128 285.937 129.417L282.261 133.803L279.404 137.563L278.536 138.78C278.838 138.828 279.151 138.828 279.344 138.828C280.573 138.888 282.201 138.069 284.491 136.442C286.118 135.322 287.094 134.611 287.492 134.358C289.071 133.237 289.276 133.141 290.035 132.369L289.529 133.683L289.553 133.719Z" fill="black"/>
<path d="M305.259 121.247C304.343 121.247 303.017 122.32 299.859 125.573C295.785 129.803 291.457 135.502 289.722 138.852C289.866 139.274 290.276 139.515 291.156 139.515C292.735 139.515 294.615 137.84 299.702 132.128C304.186 127.043 306.018 124.139 306.078 122.091C306.078 121.536 305.874 121.271 305.259 121.223M289.565 132.863C292.06 128.839 293.687 127.103 297.255 124.561C300.461 122.271 304.186 120.488 305.669 120.536C306.537 120.536 306.838 120.994 306.79 122.163C306.79 122.524 306.741 122.874 306.633 123.235C306.633 123.344 306.428 123.645 306.223 124.163L305.512 125.694L304.704 126.911L305.464 126.862L306.078 126.103L307.754 124.067C307.862 123.91 308.622 123.151 309.9 121.717C309.948 121.621 310.153 121.464 310.309 121.211C311.081 121.356 311.479 121.404 311.949 121.404C313.021 121.464 313.733 121.211 315.251 120.5C314.95 120.801 314.793 121.006 314.637 121.103C314.287 121.572 313.154 122.79 311.479 124.669C306.693 129.911 302.209 135.466 299.714 139.129C300.172 139.286 300.534 139.334 300.835 139.334C301.799 139.382 303.897 138.37 305.922 136.792C308.465 134.743 311.527 131.899 312.286 130.827L311.262 133.128L311.165 133.02C310.755 133.418 310.044 134.092 309.948 134.189C309.9 134.237 309.285 134.695 308.212 135.707C305.211 138.406 302.149 140.19 300.413 140.142C299.244 140.142 298.629 139.382 298.629 138.262C298.69 136.984 299.292 135.454 301.486 131.899L301.896 131.188L301.691 130.984C296.496 137.298 292.988 140.202 290.686 140.202C289.36 140.154 288.492 138.937 288.492 137.105C288.54 136.334 288.637 135.719 289.047 134.201L289.553 132.875L289.565 132.863Z" fill="black"/>
<path d="M311.9 130.923L313.684 128.477C315.167 126.489 317.759 124.404 321.073 122.669C323.677 121.247 325.919 120.488 327.136 120.488C328.052 120.488 328.51 121.09 328.51 122.211C328.462 123.223 327.956 124.452 327.028 125.621C326.473 126.38 325.859 126.838 325.401 126.79C324.943 126.79 324.689 126.525 324.689 126.127C324.689 125.416 325.449 124.814 326.883 124.151L327.498 123.838C327.751 123.223 327.908 122.765 327.908 122.464C327.908 121.657 327.498 121.199 326.847 121.199C325.413 121.151 324.906 121.548 321.543 125.223C316.348 130.923 313.142 135.237 311.358 138.924C312.069 139.43 312.479 139.575 313.034 139.575C313.54 139.575 314.155 139.43 314.769 139.165C316.095 138.563 317.469 137.804 318.843 136.731C319.603 136.225 320.772 135.309 322.351 134.189C327.04 130.73 328.318 130.007 330.608 129.754C330.258 129.911 329.945 130.007 329.692 130.116C328.522 130.465 328.064 130.73 325.413 132.767L322.556 134.96L318.892 137.755C316.493 139.539 314.408 140.467 312.78 140.406C311.093 140.406 310.08 139.081 310.129 136.743C310.189 135.972 310.237 135.321 310.743 133.273L311.925 130.935L311.9 130.923Z" fill="black"/>
<path d="M353.619 121.561C352.546 121.561 351.377 122.573 348.581 125.525C343.542 130.972 338.853 136.828 337.781 139.322C338.287 139.732 338.504 139.877 339.058 139.877C340.685 139.877 343.241 137.9 346.857 133.767C351.944 127.911 354.391 124.199 354.391 122.368C354.391 121.802 354.041 121.561 353.619 121.561ZM358.971 133.165L357.802 134.538C357.295 134.948 356.777 135.551 356.632 135.767C352.51 139.081 350.208 140.407 348.689 140.407C347.52 140.407 346.857 139.648 346.857 138.37C346.857 137.563 347.616 135.78 348.593 134.249L349.714 132.213L350.22 131.454H349.87L349.207 132.213L347.219 134.454C343.856 138.419 340.951 140.612 339.022 140.612C337.6 140.612 337.033 139.744 337.033 137.864C337.033 135.768 337.853 133.478 339.42 131.08C341.312 128.128 343.747 125.947 347.568 123.705C350.678 121.765 352.811 120.85 353.776 120.85C354.535 120.85 355.102 121.464 355.102 122.38C355.102 123.356 354.8 124.163 353.776 125.694L353.113 126.814L353.523 127.116C354.897 125.645 355.198 125.284 357.802 122.127C359.429 120.199 361.056 118.199 362.683 116.319L367.011 111.282L370.422 107.209L371.181 106.281C374.243 106.281 374.653 106.233 376.943 105.16L377.558 104.811L376.847 105.57C375.521 106.944 374.544 107.908 373.99 108.522C370.627 112.029 369.867 112.788 361.719 122.368C358.718 125.718 356.729 128.019 355.861 129.14C355.198 129.899 354.029 131.225 352.498 133.165C349.135 137.334 348.581 138.141 348.062 139.382C348.267 139.575 348.412 139.636 348.581 139.636C348.93 139.636 349.75 139.383 350.774 138.925C351.437 138.563 352.353 138.105 353.474 137.238C355.921 135.502 359.381 130.731 359.899 130.116L358.983 133.177L358.971 133.165Z" fill="black"/>
<path d="M374.568 121.151C372.579 121.09 367.191 126.296 362.803 132.405C369.12 130.369 375.58 124.922 375.641 121.97C375.641 121.452 375.231 121.211 374.568 121.151ZM359.742 130.104C366.673 123.994 372.422 120.271 374.821 120.331C375.797 120.331 376.448 120.994 376.4 121.85C376.352 123.537 374.315 126.284 371.313 128.682C368.203 131.176 364.889 132.863 361.887 133.466L361.273 134.08C360.658 134.948 360.308 135.55 360.152 135.816C359.995 136.02 359.597 136.731 358.874 137.912L358.669 138.262C359.537 139.177 360.393 139.635 361.321 139.635C362.852 139.635 365.082 138.455 369.722 135.105L374.616 131.538C375.785 130.67 377.413 129.694 379.51 128.586C379.654 128.477 379.92 128.332 380.317 128.128L379.859 128.381C377.569 129.911 376.352 130.779 370.59 135.105C365.299 139.081 363.057 140.346 361.273 140.298C359.236 140.298 357.717 138.623 357.717 136.539C357.765 135.321 358.271 133.634 359.296 131.598L359.754 130.128L359.742 130.104Z" fill="black"/>
<path d="M467.08 101.798C467.237 106.691 463.054 111.173 457.907 111.667C463.512 109.643 466.417 106.221 466.308 101.895C466.164 97.1591 461.222 94.002 454.339 94.2069C446.697 94.4599 437.38 98.4846 429.689 104.907C420.878 112.282 406.209 131.682 398.627 145.938C397.964 147.215 397.554 147.721 397.096 147.769C396.795 147.769 396.433 147.468 396.433 147.155C396.433 146.805 396.542 146.552 397.458 145.118C400.363 140.479 400.761 139.009 402.557 129.128L403.726 121.235C404.955 114.62 405.004 114.101 406.112 110.535C406.727 108.751 407.39 107.221 407.896 105.956C408.053 105.642 408.656 104.172 409.837 101.63L410.295 100.654L410.09 100.509C409.777 100.871 409.584 101.124 409.427 101.328C409.331 101.521 407.342 104.377 403.473 109.944L395.674 121.139L387.887 132.695C376.472 149.601 361.755 158 342.71 158.614C337.72 158.759 326.667 158.313 313.781 157.445C296.979 156.276 294.58 156.168 285.672 156.481C282.924 156.578 280.477 156.686 278.392 156.891C274.571 157.156 270.593 157.602 266.422 158.265C265.555 158.409 262.698 158.927 257.864 159.747L256.49 160.012C262.445 157.819 274.932 156.035 286.636 155.686C293.772 155.421 299.883 155.638 313.938 156.445C326.112 157.156 332.175 157.313 337.828 157.156C348.737 156.795 357.392 154.662 365.383 150.432C373.218 146.263 380.149 140.202 386.923 131.49C391.094 126.139 396.397 118.813 403.075 109.185C406.486 104.257 408.825 100.895 410.199 99.1594C412.091 96.6651 413.26 94.8817 413.863 93.8092C414.273 93.1947 414.526 92.8934 414.875 92.8452C415.032 92.8452 415.189 93.0019 415.189 93.2549C415.189 93.3634 415.141 93.6164 415.044 93.7731L414.128 95.5083C412.344 98.9184 410.97 104.16 409.548 112.258L408.439 118.873C408.282 119.789 408.029 121.115 407.571 122.85C407.016 125.079 406.498 126.814 406.1 127.983C405.895 128.598 405.233 130.164 404.22 132.671C403.195 135.02 402.593 136.394 402.436 136.804C402.231 137.213 401.93 137.828 401.472 138.683L402.038 138.635L403.208 136.804C407.125 130.441 412.429 122.79 416.696 116.897C421.842 109.824 426.013 105.281 431.473 101.003C438.609 95.3998 445.781 92.3512 452.411 92.1463C460.908 91.8933 466.971 95.8095 467.128 101.822" fill="black"/>
<path d="M427.773 121.247C426.856 121.247 425.531 122.32 422.372 125.573C418.298 129.803 413.971 135.502 412.235 138.852C412.38 139.274 412.79 139.515 413.658 139.515C415.237 139.515 417.117 137.84 422.204 132.128C426.688 127.043 428.52 124.139 428.58 122.091C428.58 121.536 428.375 121.271 427.76 121.223M412.079 132.863C414.574 128.839 416.213 127.103 419.769 124.561C422.975 122.271 426.7 120.488 428.182 120.536C429.038 120.536 429.352 120.994 429.303 122.163C429.303 122.524 429.255 122.874 429.147 123.235C429.147 123.344 428.942 123.645 428.737 124.163L428.026 125.694L427.218 126.911L427.977 126.862L428.592 126.103L430.268 124.067C430.376 123.91 431.135 123.151 432.413 121.717C432.461 121.621 432.666 121.464 432.823 121.211C433.582 121.356 433.992 121.404 434.45 121.404C435.523 121.464 436.234 121.211 437.753 120.5C437.452 120.801 437.295 121.006 437.138 121.103C436.789 121.572 435.668 122.79 433.98 124.669C429.195 129.911 424.711 135.466 422.216 139.129C422.674 139.286 423.035 139.334 423.337 139.334C424.301 139.382 426.386 138.37 428.423 136.792C430.967 134.743 434.028 131.899 434.788 130.827L433.763 133.128L433.667 133.02C433.257 133.418 432.546 134.092 432.437 134.189C432.389 134.237 431.774 134.695 430.714 135.707C427.712 138.406 424.651 140.19 422.915 140.142C421.746 140.142 421.131 139.382 421.131 138.262C421.191 136.984 421.794 135.454 423.988 131.899L424.397 131.188L424.205 130.984C419.009 137.298 415.49 140.202 413.2 140.202C411.874 140.154 411.006 138.937 411.006 137.105C411.054 136.334 411.163 135.719 411.56 134.201L412.067 132.875L412.079 132.863Z" fill="black"/>
<path d="M454.725 133.767L453.965 134.43C448.975 138.394 446.781 139.684 445.045 139.78C443.671 139.828 442.599 138.816 442.599 137.442C442.55 136.575 443.008 135.31 443.72 134.225C444.274 133.357 445.094 132.14 446.263 130.502C448.143 127.959 449.409 126.284 450.18 125.513C452.519 123.067 452.675 122.862 452.675 121.44C452.47 121.38 452.266 121.38 452.266 121.38C451.554 121.44 450.482 122.091 448.601 123.73C444.527 127.14 439.127 133.394 434.438 140.021C430.557 145.516 428.423 148.528 428.062 149.083C425.519 152.396 423.891 154.686 423.132 155.903C423.072 155.963 422.867 156.313 422.565 156.819C421.493 156.662 421.083 156.626 420.577 156.662C419.094 156.662 417.467 157.277 415.996 158.337C421.806 152.071 424.506 148.661 431.581 138.587C436.319 131.863 438.717 128.55 441.466 124.886L442.08 124.067H441.767L441.007 124.886C432.498 134.912 426.941 139.648 423.891 139.744C424.349 138.985 425.314 138.623 425.977 138.274C427.459 137.346 428.881 136.334 430.207 135.165C432.654 132.984 433.823 131.707 439.682 125.139C441.562 122.994 443.093 121.259 444.262 120.102L447.468 116.68L449.204 114.8L450.072 113.981C450.421 113.632 450.687 113.427 450.735 113.318C450.94 113.174 451.193 113.053 451.446 113.053C451.747 113.053 451.904 113.162 451.904 113.415C451.904 113.764 451.699 114.029 450.638 114.885C450.12 115.295 449.662 115.596 449.361 115.909L448.035 117.235L447.528 117.741L447.022 118.452L445.13 121.307L443.141 124.561L441.309 127.718L438.862 131.839L438.199 133.068L438.717 133.008L439.621 131.936C446.046 124.453 450.325 120.681 452.458 120.584C453.628 120.536 454.387 121.404 454.435 122.778C454.496 125.007 453.531 126.802 449.144 132.345C446.142 136.165 445.274 137.382 444.515 138.913C444.877 138.961 445.07 139.009 445.226 138.961C446.395 138.961 449.095 137.322 452.663 134.538C453.531 133.876 454.303 133.213 455.014 132.598C455.315 132.285 455.52 132.092 455.677 131.887L454.712 133.719L454.725 133.767Z" fill="black"/>
<path d="M471.901 120.994C471.238 120.994 470.225 121.56 469.345 122.271C467.718 123.537 466.392 125.718 466.392 127.055C466.392 127.863 467.151 128.574 468.224 128.574H469.188L469.9 127.453L471.165 125.718C471.274 125.525 471.575 124.959 472.142 123.886C472.503 123.127 472.696 122.464 472.696 122.055C472.756 121.5 472.346 120.982 471.888 120.982M468.224 129.2C466.5 129.2 465.584 128.586 465.633 127.152C465.633 126.887 465.681 126.597 465.934 125.874C465.994 125.718 466.042 125.404 466.139 125.163C462.113 128.718 457.472 134.779 455.495 139.057C455.954 139.563 456.255 139.672 456.93 139.672C458.714 139.672 462.884 136.719 465.379 133.514L468.441 129.586L468.742 129.188H468.236L468.224 129.2ZM475.975 126.332C475.517 126.646 474.601 127.152 474.347 127.308C472.154 128.429 470.936 128.935 469.454 129.14C465.331 135.551 459.726 140.443 456.677 140.334C454.893 140.274 453.724 139.009 453.82 136.912C453.868 133.707 456.11 129.73 459.521 126.826C461.908 124.85 464.56 123.211 468.73 121.223C469.96 120.717 471.081 120.355 471.937 120.355H471.997C472.865 120.355 473.528 120.97 473.528 121.826C473.48 122.645 472.612 124.537 471.696 126.055L470.683 127.429L470.02 128.188C471.647 127.887 474.456 126.501 478.373 124.224L475.975 126.308V126.332Z" fill="black"/>
<path d="M502.107 101.69C500.432 101.738 496.551 105.402 491.56 111.571L486.884 117.319L483.111 121.958L481.99 123.573C487.703 120.476 495.032 113.957 499.504 107.992C501.637 105.04 502.662 103.257 502.565 102.232C502.565 101.823 502.409 101.678 502.107 101.678M484.388 131.381L479.543 136.117L478.325 137.238C476.035 139.334 474.251 140.19 472.721 140.298C471.298 140.298 470.322 139.334 470.274 137.599C470.225 135.502 470.985 133.478 473.588 128.899C473.685 128.742 473.842 128.441 474.963 127.067L475.625 126.091C480.616 119.524 486.365 113.258 493.139 107.101C497.515 103.233 500.673 100.991 502.204 100.991C502.867 100.943 503.373 101.401 503.373 102.112C503.373 103.329 502.204 105.57 500.119 108.318C494.815 115.343 487.631 121.609 480.206 125.417C479.242 126.598 478.988 126.947 477.867 128.526C475.372 132.141 474.962 132.647 473.432 134.948C472.214 136.732 472.058 137.141 471.346 138.503C471.696 139.322 472.214 139.575 472.974 139.527C473.685 139.527 474.758 139.021 475.722 138.31C478.109 136.479 479.941 135.551 485.244 128.019L484.376 131.381H484.388Z" fill="black"/>
<path d="M498.143 120.994C495.551 121.09 491.622 124.464 486.27 131.08L485.51 131.996C488.873 131.634 492.188 129.754 495.901 126.296C497.733 124.513 498.902 122.729 498.854 121.753C498.854 121.199 498.661 120.994 498.143 120.994ZM480.978 133.116C484.956 126.441 493.104 120.44 498.444 120.283C499.203 120.235 499.77 120.801 499.77 121.657C499.818 122.729 498.54 124.657 496.407 126.754C492.538 130.574 488.512 132.707 484.691 132.912L484.076 133.719L482.955 135.153C482.292 135.96 481.931 136.527 481.014 138.057C481.726 139.178 482.184 139.479 483.413 139.431C486.005 139.382 490.537 136.527 495.636 131.791L498.082 129.501L497.323 131.429H497.275L495.539 133.008C490.392 137.539 486.017 140.142 483.365 140.19C481.424 140.286 480.11 139.069 480.002 137.141C480.002 136.671 480.05 136.069 480.207 135.093L480.966 133.116H480.978Z" fill="black"/>
<path d="M512.571 120.994C511.908 120.994 510.884 121.56 510.028 122.271C508.388 123.537 507.075 125.718 507.075 127.055C507.075 127.863 507.834 128.574 508.907 128.574H509.871L510.582 127.453L511.86 125.718C511.956 125.525 512.27 124.959 512.824 123.886C513.174 123.127 513.379 122.464 513.379 122.055C513.427 121.5 513.017 120.982 512.571 120.982M508.895 129.2C507.159 129.2 506.243 128.586 506.291 127.152C506.291 126.887 506.351 126.597 506.592 125.874C506.653 125.718 506.701 125.404 506.797 125.163C502.771 128.718 498.131 134.779 496.154 139.057C496.612 139.563 496.913 139.672 497.576 139.672C499.36 139.672 503.531 136.719 506.038 133.514L509.088 129.586L509.389 129.188H508.883L508.895 129.2ZM516.633 126.332C516.175 126.646 515.259 127.152 515.006 127.308C512.812 128.429 511.583 128.935 510.112 129.14C505.99 135.551 500.385 140.443 497.323 140.334C495.539 140.274 494.37 139.009 494.466 136.912C494.515 133.707 496.757 129.73 500.168 126.826C502.555 124.85 505.206 123.211 509.389 121.223C510.618 120.717 511.727 120.355 512.595 120.355H512.643C513.511 120.355 514.162 120.97 514.162 121.826C514.114 122.645 513.258 124.537 512.33 126.055L511.305 127.429L510.643 128.188C512.27 127.887 515.078 126.501 518.996 124.224L516.597 126.308L516.633 126.332Z" fill="black"/>
<path d="M520.369 122.211L521.381 120.982L521.9 120.476C522.816 121.187 523.177 121.79 523.226 122.91C523.274 125.007 522.105 127.549 518.85 132.333C518.705 132.55 518.501 132.9 518.187 133.358H518.597L519.465 132.454L522.671 128.73C526.902 123.886 530.819 120.934 533.11 120.838C534.291 120.789 535.05 121.597 535.098 122.97C535.147 124.91 534.182 126.585 530.41 131.369C528.626 133.611 526.95 135.792 525.468 137.84L524.503 139.202C525.227 139.563 525.528 139.624 526.034 139.624C528.18 139.563 530.819 138.298 539.028 133.514C547.333 128.622 549.165 127.851 552.528 127.658C548.454 128.923 546.164 130.104 538.57 134.526C531.133 138.961 528.131 140.334 525.685 140.383C523.949 140.443 522.78 139.515 522.731 137.985C522.671 136.358 523.551 134.635 525.889 131.731L528.131 129.08L531.386 124.91C532.555 123.428 533.218 122.561 533.363 122.211C533.423 122.163 533.471 121.958 533.519 121.657C533.11 121.512 532.953 121.452 532.7 121.452C530.108 121.561 521.345 130.212 514.619 139.322C513.751 139.009 513.342 138.913 512.884 138.913C512.016 138.961 511.1 139.322 509.062 140.443C515.885 132.803 521.695 124.296 521.791 121.645L521.237 122.308C517.464 126.525 515.427 127.959 512.932 127.598C515.68 126.79 517.97 125.055 520.369 122.199" fill="black"/>
<path d="M510.569 110.884C510.569 110.884 510.569 110.872 510.521 110.884C506.387 113.62 502.638 115.198 498.335 116.572C497.129 116.957 496.37 118.042 495.635 118.922C497.684 118.331 499.552 117.729 501.577 117.09C504.301 116.283 506.748 115.066 508.46 113.126C509.159 112.342 509.894 111.595 510.569 110.884Z" fill="black"/>
</g>
<defs>
<clipPath id="clip0_1841_5627">
<rect width="663" height="160" fill="white"/>
</clipPath>
</defs>
</svg>
