<svg width="232" height="51" viewBox="0 0 232 51" fill="none" xmlns="http://www.w3.org/2000/svg">
<g id="Calque_1" clip-path="url(#clip0_2120_11139)">
<path id="Vector" d="M9.19164 51.0001C8.84451 51.0001 8.36514 50.2579 7.77005 48.7899C7.17497 47.3219 6.82784 45.4581 6.72866 43.2478C4.92688 42.9839 3.43917 42.2417 2.23247 41.0211C1.02577 39.8006 0.430688 38.0687 0.430688 35.8749C0.430688 33.4833 1.00924 30.9927 2.14982 28.4196C3.2904 25.8465 4.8277 23.3394 6.72866 20.8817C4.46403 20.3704 2.77796 19.4138 1.65392 18.0118C0.529868 16.6097 -0.015625 14.9933 -0.015625 13.1954C-0.015625 11.7275 0.529868 10.21 1.63739 8.67605C2.7449 7.14209 4.24914 5.72359 6.18316 4.40405C8.11719 3.08452 10.2992 2.02889 12.7456 1.22068C15.1921 0.412462 17.7708 0.0166016 20.4817 0.0166016C21.1264 0.0166016 21.6884 0.0660841 22.1678 0.148555C22.6471 0.231026 22.8786 0.362979 22.8786 0.511427C22.8786 0.659875 22.7463 0.742345 22.4984 0.742345C22.2835 0.742345 21.9859 0.725851 21.6223 0.676369C21.2586 0.626886 20.8288 0.610392 20.3329 0.610392C18.3659 0.610392 16.2665 0.989758 14.068 1.732C11.8695 2.47423 9.78673 3.49687 7.8527 4.78342C5.91868 6.06997 4.33179 7.53795 3.10856 9.18736C1.88534 10.8368 1.27372 12.5687 1.27372 14.383C1.27372 15.6366 1.78616 16.8242 2.82755 17.9128C3.86895 19.0014 5.34013 19.7601 7.27415 20.2055C9.29082 17.7313 11.5885 15.3892 14.1672 13.179C16.7459 10.9687 19.4734 9.03892 22.3331 7.35651C25.1928 5.6741 28.036 4.35457 30.8791 3.38141C33.7223 2.40826 36.4002 1.92993 38.9128 1.92993C39.7558 1.92993 40.4666 2.09487 41.0286 2.42475C41.5906 2.75464 41.8717 3.31544 41.8717 4.12365C41.8717 5.45968 41.2435 6.89467 39.9872 8.39564C38.7309 9.89662 37.0283 11.3976 34.896 12.8491C32.7636 14.3006 30.3832 15.6366 27.7384 16.8572C25.0936 18.0777 22.3827 19.0674 19.5725 19.8591C16.7624 20.6508 14.1011 21.0797 11.5554 21.1951C8.91063 24.0816 6.72866 26.9351 5.00953 29.7226C3.2904 32.5101 2.4143 34.9348 2.4143 36.9801C2.4143 38.5305 2.81102 39.7511 3.58794 40.6583C4.36485 41.5654 5.42278 42.1427 6.72866 42.4066C6.72866 39.7181 7.22456 37.1285 8.21637 34.6379C9.20817 32.1473 10.5471 29.9205 12.2167 27.9742C13.8862 26.0279 15.7706 24.4775 17.8534 23.3394C19.9362 22.2013 22.0686 21.6405 24.2506 21.6405C25.9036 21.6405 27.1764 22.0198 28.0525 22.7786C28.9286 23.5373 29.3749 24.527 29.3749 25.7805C29.3749 27.4794 28.8294 29.3268 27.7549 31.339C26.6805 33.3513 25.1597 35.2647 23.2092 37.0955C21.2586 38.9264 19.0105 40.4108 16.4318 41.5819C13.8531 42.753 11.0926 43.3303 8.11719 43.3303C7.88576 43.3303 7.70393 43.3303 7.58822 43.2973C7.62128 44.353 7.77005 45.6065 8.01801 47.058C8.26596 48.5095 8.69574 49.6476 9.34041 50.4723C9.42306 50.5713 9.45612 50.6537 9.45612 50.7032V50.8517C9.45612 50.9506 9.37347 51.0001 9.19164 51.0001ZM8.44779 42.5551C10.0512 42.5551 11.6877 42.1262 13.3903 41.252C15.0929 40.3779 16.7294 39.2563 18.2997 37.8707C19.8701 36.4852 21.2917 34.9843 22.5645 33.3843C23.8373 31.7844 24.8291 30.2174 25.573 28.6835C26.3168 27.1495 26.6805 25.83 26.6805 24.7249C26.6805 23.1909 25.7713 22.4157 23.953 22.4157C22.2835 22.4157 20.4982 22.927 18.5973 23.9661C16.6963 25.0053 14.9276 26.4238 13.258 28.2546C11.5885 30.0855 10.233 32.2132 9.17511 34.6379C8.11719 37.0625 7.58822 39.6851 7.58822 42.4726V42.5056C7.72046 42.5221 7.86923 42.5386 8.01801 42.5386H8.44779V42.5551ZM12.2993 20.4034C14.4647 20.189 16.8451 19.6447 19.4238 18.787C22.0025 17.9293 24.5812 16.8737 27.1268 15.6366C29.6724 14.3995 32.0197 13.08 34.1356 11.678C36.2514 10.276 37.954 8.92346 39.2434 7.62042C40.5327 6.31738 41.1609 5.17928 41.1609 4.20612C41.1609 3.62883 40.946 3.23297 40.5327 3.00205C40.1195 2.77113 39.5574 2.65567 38.8632 2.65567C37.4085 2.65567 35.6067 3.1505 33.4744 4.12365C31.342 5.09681 29.0608 6.43284 26.6144 8.09875C24.1679 9.76466 21.7215 11.678 19.2585 13.7892C16.7955 15.9005 14.4813 18.1107 12.3158 20.4199L12.2993 20.4034Z" fill="#A32836"/>
<path id="Vector_2" d="M34.1851 43.33C32.5321 43.33 31.3089 42.9507 30.5154 42.1919C29.722 41.4332 29.2757 40.5095 29.193 39.4044C29.1269 38.0684 29.4079 36.6334 30.0361 35.0995C30.6642 33.5655 31.3254 32.2789 32.0693 31.2398C33.028 29.8873 34.2017 28.5843 35.5902 27.3307C36.9787 26.0771 38.483 25.0545 40.136 24.2628C41.789 23.4711 43.475 23.0752 45.2107 23.0752C46.2521 23.0752 47.1613 23.3391 47.9216 23.8834C48.682 24.4277 49.0953 25.2854 49.1779 26.473C49.2771 28.1389 48.9465 29.9038 48.2027 31.7346C47.4588 33.5655 46.4339 35.2809 45.1611 36.8478C45.2934 37.4251 45.7397 37.7055 46.4835 37.7055C47.2274 37.7055 48.0043 37.4086 48.8804 36.8313C49.7565 36.254 50.583 35.5613 51.4095 34.7861C52.236 34.0108 52.9303 33.2686 53.5254 32.6088C54.1204 31.9491 54.5172 31.5037 54.7155 31.3058L55.3602 31.8006C54.98 32.147 54.451 32.7078 53.7568 33.4335C53.0625 34.1593 52.3021 34.9345 51.4591 35.7097C50.6161 36.485 49.7565 37.1447 48.8804 37.7055C48.0043 38.2663 47.1778 38.5302 46.4174 38.5302C45.4752 38.5302 44.8305 38.2333 44.4999 37.6396C43.0453 39.289 41.3923 40.658 39.5739 41.7301C37.7556 42.8022 35.9539 43.33 34.2017 43.33H34.1851ZM34.962 42.4394C35.6563 42.4394 36.4498 42.2414 37.3589 41.8456C38.2681 41.4497 39.1772 40.9384 40.0864 40.2786C41.6071 39.19 42.9791 37.9365 44.2024 36.4685V36.353C44.2024 35.1324 44.5164 34.1593 45.1611 33.45C45.8058 32.7408 46.4339 32.2789 47.0455 32.081C48.0043 30.0687 48.4506 28.2709 48.3514 26.6874C48.2853 25.7308 48.0374 25.0545 47.591 24.6751C47.1447 24.2958 46.6654 24.1143 46.1199 24.1143C44.9793 24.1143 43.5742 24.7906 41.9047 26.1431C40.2351 27.4956 38.3838 29.4255 36.334 31.9656C34.8794 33.7964 33.8545 35.3304 33.276 36.6004C32.6974 37.8705 32.4495 38.9426 32.5156 39.8828C32.5156 40.4106 32.6974 40.9714 33.0611 41.5652C33.4247 42.159 34.0694 42.4559 34.962 42.4559V42.4394Z" fill="#A32836"/>
<path id="Vector_3" d="M53.2426 43.3301C51.9532 43.3301 51.0441 43.0168 50.4986 42.39C49.9531 41.7632 49.6555 41.0869 49.639 40.3612C49.5564 38.9097 50.1019 37.3263 51.2755 35.6109C52.4491 33.8955 54.1352 31.7677 56.3172 29.2111C57.0941 28.3039 57.8875 27.3308 58.7306 26.2917C59.5736 25.2525 60.4332 24.2299 61.3423 23.2567C62.0201 23.3722 62.797 23.4382 63.7061 23.4382C63.9871 23.4382 64.3673 23.4382 64.8632 23.4052C65.3591 23.3722 65.6732 23.3722 65.8385 23.3392C64.169 25.1371 62.4829 27.0174 60.8134 28.9967C59.1438 30.976 57.6396 32.7904 56.3172 34.3903C55.8874 34.9181 55.3254 35.5779 54.6311 36.3861C53.9368 37.1943 53.3418 38.0355 52.8128 38.9262C52.2838 39.8169 52.0359 40.6911 52.0524 41.5323C52.0524 41.8127 52.1516 42.0601 52.35 42.2745C52.5483 42.4889 52.9285 42.6044 53.474 42.6044C53.8707 42.6044 54.4823 42.4724 55.3254 42.225C56.1684 41.9776 57.061 41.5323 58.0032 40.922C59.3257 40.0313 60.8299 38.8272 62.4994 37.2768C64.169 35.7263 66.0038 33.747 67.9709 31.3059C68.4007 30.7781 68.7643 30.3492 69.0288 30.0028C69.2933 29.6565 69.5578 29.3596 69.8057 29.0957C70.5 28.2545 71.2439 27.3473 72.0538 26.3741C72.8638 25.401 73.7399 24.3618 74.6821 23.2402C75.3103 23.3062 75.7566 23.3392 76.0045 23.3722C76.2525 23.4052 76.5996 23.4217 77.0459 23.4217C77.9716 23.4217 78.6824 23.3887 79.1783 23.3392C78.0212 24.5928 76.6823 26.1267 75.1946 27.9081C73.7068 29.6895 72.2357 31.4873 70.781 33.2852C69.3264 35.0831 68.037 36.6665 66.9295 38.019C65.9873 39.1241 65.3922 39.8664 65.1443 40.2787C64.8963 40.6911 64.7806 41.0704 64.7806 41.4498C64.7971 41.6807 64.8798 41.9281 65.0285 42.1591C65.1773 42.39 65.6071 42.5054 66.3179 42.5054C67.3593 42.5054 68.4999 42.1591 69.7396 41.4663C70.9794 40.7735 72.1861 39.9158 73.4093 38.8767C74.6325 37.8376 75.7566 36.782 76.8145 35.7098C77.8724 34.6377 78.7651 33.681 79.4924 32.8563C80.2197 32.0316 80.6991 31.5038 80.914 31.2894L81.5091 31.7842C81.2776 32.0481 80.7817 32.5924 80.0213 33.4336C79.261 34.2748 78.3353 35.2645 77.2278 36.3696C76.1202 37.4747 74.9301 38.5633 73.6573 39.6354C72.3844 40.7076 71.0951 41.5818 69.8057 42.2745C68.5164 42.9673 67.2766 43.3137 66.1361 43.3137C65.3426 43.3137 64.6814 43.0992 64.1524 42.6539C63.6235 42.2085 63.3425 41.5983 63.3259 40.8065C63.3094 40.0973 63.4086 39.355 63.64 38.5963C63.8714 37.8376 64.2516 36.9634 64.8136 36.0067C62.3507 38.6623 60.1356 40.5756 58.1851 41.7632C57.1767 42.3735 56.2676 42.7858 55.4411 43.0003C54.6146 43.2147 53.8873 43.3301 53.2756 43.3301H53.2426Z" fill="#A32836"/>
<path id="Vector_4" d="M85.5925 43.3301C84.4849 43.3301 83.5923 43.0497 82.8981 42.4889C82.2038 41.9281 81.8567 41.2024 81.8567 40.2952C81.8567 38.7282 83.0138 36.8314 85.3115 34.6047C87.6091 32.378 90.7499 29.9533 94.684 27.3143C92.6673 26.9844 90.9482 26.638 89.4936 26.3081C88.0389 25.9782 86.8818 25.6154 86.0222 25.2195C85.6255 26.0112 85.0635 26.9679 84.3031 28.106C83.5427 29.2441 82.6005 30.4812 81.4434 31.8007C80.65 32.7244 80.0714 33.3676 79.6747 33.747C79.278 34.1264 79.0135 34.3408 78.8647 34.4068C78.7159 34.4728 78.6333 34.5222 78.6168 34.5717C78.5506 34.5882 78.5176 34.5387 78.5176 34.3903C78.5176 34.2418 78.5176 34.1429 78.5176 34.0604C78.5176 33.9779 78.6663 33.7965 78.9639 33.4996C79.2614 33.2027 79.873 32.4605 80.8318 31.2894C81.8236 30.0523 82.6997 28.8647 83.4601 27.7431C84.2205 26.6215 84.8155 25.6319 85.2288 24.7907C84.518 24.3453 84.1048 23.834 83.989 23.2897C83.8237 22.3495 84.0221 21.4918 84.5511 20.7166C85.08 19.9414 85.7743 19.562 86.6173 19.562C87.6587 19.562 88.1877 20.0074 88.1877 20.9145C88.1877 21.3599 88.105 21.7557 87.9232 22.0691C87.7414 22.3825 87.5761 22.6959 87.3942 22.9763C87.0471 23.3887 86.8653 23.9165 86.8653 24.5433C86.8653 24.7412 87.2124 24.9556 87.8901 25.17C88.5679 25.3845 89.4109 25.6154 90.4027 25.8133C91.3945 26.0112 92.3863 26.1927 93.3451 26.3411C94.3038 26.4896 95.0642 26.5885 95.6262 26.6215C96.0064 26.638 96.2379 26.704 96.3205 26.8195C96.4032 26.9349 96.4527 27.0174 96.4527 27.0669C96.4527 27.2648 96.1717 27.5947 95.5932 28.04C94.5022 28.8647 93.3947 29.8709 92.2541 31.042C91.1135 32.213 90.0391 33.4171 89.0638 34.6707C88.0885 35.9242 87.2785 37.0953 86.6669 38.2004C86.0553 39.3055 85.7578 40.2127 85.7578 40.922C85.7578 41.8456 86.138 42.3075 86.8818 42.3075C87.8406 42.3075 88.8985 41.9776 90.0391 41.3343C91.1796 40.6911 92.3367 39.8663 93.5104 38.8932C94.684 37.92 95.7915 36.8974 96.8164 35.8418C97.8413 34.7861 98.7504 33.846 99.4943 33.0048C100.238 32.1636 100.767 31.5863 101.065 31.2729L101.66 31.7677C101.23 32.1801 100.618 32.8398 99.8084 33.7305C98.9984 34.6212 98.0727 35.6108 97.0148 36.716C95.9568 37.8211 94.7997 38.8602 93.5434 39.8499C92.2872 40.8395 90.9978 41.6807 89.6589 42.324C88.3199 42.9673 86.9645 43.2971 85.609 43.2971L85.5925 43.3301Z" fill="#A32836"/>
<path id="Vector_5" d="M98.8334 43.3304C96.6183 43.3304 95.5273 42.5222 95.5273 40.8893C95.5273 40.18 95.6596 39.4543 95.9406 38.7285C96.2216 38.0028 96.7671 37.0296 97.5771 35.8586C98.387 34.6875 99.6103 33.071 101.23 31.0423C102.09 29.9371 103.164 28.7331 104.437 27.4465C105.71 26.16 107.098 24.758 108.586 23.257C109.214 23.323 109.677 23.356 109.975 23.389C110.272 23.4219 110.652 23.4384 111.099 23.4384C111.991 23.4384 112.702 23.4055 113.231 23.356C111.876 24.5765 110.785 25.6157 109.958 26.4734C109.132 27.3311 108.404 28.1393 107.727 28.9145C107.049 29.6897 106.255 30.5639 105.33 31.5536C104.834 32.0649 104.173 32.7576 103.313 33.6153C102.453 34.473 101.61 35.3967 100.718 36.3699C99.8252 37.343 99.0978 38.2667 98.4862 39.1244C97.8746 39.9821 97.5771 40.6913 97.5771 41.2192C97.5771 41.8624 97.7258 42.2583 98.0399 42.3903C98.354 42.5222 98.7507 42.5882 99.2301 42.5882C100.685 42.5882 102.272 42.1923 103.958 41.4171C105.644 40.6419 107.363 39.6357 109.066 38.4152C110.768 37.1946 112.405 35.908 113.909 34.5885C115.347 33.302 116.405 32.1474 117.099 31.0917C117.793 30.0361 118.24 29.0135 118.455 28.0073C118.669 27.0012 118.785 25.9456 118.785 24.8569C118.785 24.1312 119.017 23.5374 119.463 23.0756C119.909 22.6137 120.471 22.3828 121.116 22.3828C122.223 22.3828 122.769 22.9271 122.769 23.9992C122.769 24.5436 122.62 25.2198 122.339 26.028C122.058 26.8362 121.48 27.7929 120.637 28.931C119.794 30.0691 118.537 31.4546 116.884 33.0545L116.091 33.7968C115.413 34.704 115.016 35.5617 114.884 36.3864C114.752 37.2111 115.215 37.6069 116.273 37.6069C116.95 37.6069 117.694 37.3595 118.537 36.8812C119.38 36.4029 120.207 35.8091 121.033 35.1163C121.86 34.4236 122.62 33.7143 123.331 33.0216C124.042 32.3288 124.571 31.7515 124.934 31.3227L125.563 31.8175C124.918 32.5267 124.042 33.4009 122.951 34.4236C121.86 35.4462 120.703 36.3699 119.479 37.1451C118.256 37.9203 117.116 38.3327 116.058 38.3327C115.099 38.3327 114.487 38.0523 114.239 37.475C113.991 36.8977 114.091 36.1555 114.52 35.1988C113.066 36.4194 111.413 37.6564 109.561 38.91C107.71 40.1635 105.842 41.2192 103.958 42.0604C102.073 42.9016 100.371 43.3304 98.8334 43.3304Z" fill="#A32836"/>
<path id="Vector_6" d="M126.687 43.33C125.034 43.33 123.811 42.9507 123.017 42.1919C122.224 41.4332 121.778 40.5095 121.695 39.4044C121.629 38.0684 121.91 36.6334 122.538 35.0995C123.166 33.5655 123.827 32.2789 124.571 31.2398C125.53 29.8873 126.704 28.5843 128.092 27.3307C129.481 26.0771 130.985 25.0545 132.638 24.2628C134.291 23.4711 135.977 23.0752 137.713 23.0752C138.754 23.0752 139.663 23.3391 140.424 23.8834C141.184 24.4277 141.597 25.2854 141.68 26.473C141.779 28.1389 141.448 29.9038 140.705 31.7346C139.961 33.5655 138.936 35.2809 137.663 36.8478C137.795 37.4251 138.242 37.7055 138.985 37.7055C139.729 37.7055 140.506 37.4086 141.382 36.8313C142.258 36.254 143.085 35.5613 143.911 34.7861C144.738 34.0108 145.432 33.2686 146.027 32.6088C146.622 31.9491 147.019 31.5037 147.217 31.3058L147.862 31.8006C147.482 32.147 146.953 32.7078 146.259 33.4335C145.564 34.1593 144.804 34.9345 143.961 35.7097C143.118 36.485 142.258 37.1447 141.382 37.7055C140.506 38.2663 139.68 38.5302 138.919 38.5302C137.977 38.5302 137.332 38.2333 137.002 37.6396C135.547 39.289 133.894 40.658 132.076 41.7301C130.258 42.8022 128.456 43.33 126.704 43.33H126.687ZM127.464 42.4394C128.158 42.4394 128.952 42.2414 129.861 41.8456C130.77 41.4497 131.679 40.9384 132.588 40.2786C134.109 39.19 135.481 37.9365 136.704 36.4685V36.353C136.704 35.1324 137.018 34.1593 137.663 33.45C138.308 32.7408 138.936 32.2789 139.547 32.081C140.506 30.0687 140.953 28.2709 140.853 26.6874C140.787 25.7308 140.539 25.0545 140.093 24.6751C139.647 24.2958 139.167 24.1143 138.622 24.1143C137.481 24.1143 136.076 24.7906 134.407 26.1431C132.737 27.4956 130.886 29.4255 128.836 31.9656C127.381 33.7964 126.356 35.3304 125.778 36.6004C125.199 37.8705 124.951 38.9426 125.018 39.8828C125.018 40.4106 125.199 40.9714 125.563 41.5652C125.927 42.159 126.571 42.4559 127.464 42.4559V42.4394Z" fill="#A32836"/>
<path id="Vector_7" d="M145.548 43.3303C144.341 43.3303 143.383 43.1158 142.639 42.6705C141.895 42.2251 141.531 41.6314 141.531 40.8891C141.531 40.2953 141.68 39.6191 141.978 38.8438C142.275 38.0686 142.837 37.046 143.68 35.7924C144.523 34.5389 145.746 32.8894 147.35 30.8771C148.953 28.8649 151.069 26.3248 153.697 23.2733C153.879 23.2898 154.292 23.3063 154.97 23.3393C155.648 23.3723 156.16 23.3723 156.541 23.3723C156.871 23.3723 157.119 23.3723 157.301 23.3723C157.483 23.3723 157.632 23.3558 157.797 23.3228C154.921 26.7041 152.573 29.4916 150.739 31.6689C148.904 33.8461 147.515 35.5945 146.523 36.8975C145.532 38.2006 144.854 39.1902 144.49 39.883C144.126 40.5757 143.928 41.12 143.928 41.5324C143.928 42.0437 144.209 42.3406 144.755 42.4231C145.3 42.5055 145.746 42.5385 146.077 42.5385C147.135 42.5385 148.309 42.1757 149.565 41.4664C150.821 40.7572 152.077 39.85 153.334 38.7779C154.59 37.7057 155.747 36.6171 156.822 35.512C157.896 34.4069 158.772 33.4667 159.466 32.6585C160.161 31.8503 160.557 31.405 160.673 31.2895L161.268 31.8173C161.053 32.0482 160.574 32.5925 159.847 33.4337C159.119 34.275 158.21 35.2646 157.119 36.3697C156.028 37.4748 154.855 38.5634 153.549 39.6356C152.243 40.7077 150.92 41.5819 149.565 42.2911C148.209 43.0004 146.854 43.3468 145.565 43.3468L145.548 43.3303ZM160.657 17.4344C160.111 17.4344 159.665 17.2695 159.334 16.9231C159.004 16.5767 158.838 16.1478 158.838 15.6035C158.838 14.9108 159.136 14.284 159.714 13.7067C160.293 13.1294 160.987 12.8325 161.797 12.8325C162.343 12.8325 162.789 13.014 163.12 13.3768C163.45 13.7397 163.615 14.185 163.615 14.6964C163.615 15.4221 163.301 16.0654 162.69 16.6097C162.078 17.154 161.4 17.4344 160.657 17.4344Z" fill="#A32836"/>
<path id="Vector_8" d="M158.971 43.9571C158.359 43.9571 157.566 43.8746 156.607 43.7262C155.648 43.5777 154.772 43.2313 154.012 42.72C153.251 42.2087 152.871 41.417 152.871 40.3284C152.871 39.3387 153.169 38.5305 153.78 37.8872C154.392 37.2439 155.053 36.7656 155.78 36.4522C156.508 36.1388 157.053 35.9739 157.4 35.9739C158.21 35.9739 158.607 36.3533 158.607 37.0955C158.59 37.4089 158.359 37.7058 157.946 37.9697C157.533 38.2336 157.053 38.3655 156.541 38.3655C156.309 38.3655 156.078 38.2831 155.847 38.1181C155.615 37.9532 155.433 37.8212 155.301 37.7553C155.086 37.9697 154.756 38.2831 154.309 38.7119C153.863 39.1408 153.648 39.6851 153.648 40.3448C153.648 41.0871 153.946 41.6479 154.557 42.0108C155.169 42.3736 155.83 42.6045 156.59 42.72C157.351 42.8355 157.913 42.8849 158.309 42.8849C159.136 42.8849 160.177 42.5551 161.417 41.8953C162.657 41.2355 163.814 40.1304 164.888 38.58C165.963 37.0295 166.657 34.9183 166.971 32.2297C167.07 31.2895 167.17 29.97 167.252 28.3041C167.335 26.6382 167.649 25.0218 168.178 23.4878C168.194 23.4218 168.211 23.3393 168.211 23.2239C167.467 24.1476 166.657 25.1372 165.781 26.2093C164.905 27.2815 164.078 28.2876 163.285 29.2772C162.492 30.2669 161.797 31.0916 161.235 31.7844C160.839 32.2627 160.558 32.5596 160.376 32.6915C160.194 32.8235 160.111 32.906 160.144 32.906C160.128 32.906 160.045 32.906 159.929 32.906C159.814 32.906 159.698 32.8565 159.615 32.708C159.582 32.6091 159.665 32.4276 159.896 32.1472C160.128 31.8668 160.359 31.5699 160.624 31.2566C161.07 30.7452 161.781 29.937 162.723 28.8154C163.665 27.6938 164.674 26.4897 165.732 25.2197C166.789 23.9496 167.699 22.8115 168.459 21.8219C168.575 21.2281 168.757 20.7003 168.988 20.2219C169.219 19.7436 169.566 19.5127 169.996 19.5127C170.79 19.5127 171.186 19.8426 171.186 20.4859C171.17 20.8652 170.707 21.558 169.831 22.5806C169.302 23.2074 169.021 23.6197 168.971 23.8012C168.922 23.9826 168.905 24.23 168.905 24.5269C168.889 25.2362 168.955 26.1104 169.12 27.166C169.285 28.2216 169.467 29.3267 169.666 30.4648C169.864 31.6029 169.996 32.708 170.046 33.7472C170.112 35.2976 169.93 36.6501 169.517 37.7882C169.831 37.8212 170.095 37.8542 170.31 37.8542C170.938 37.8542 171.666 37.5738 172.476 36.9965C173.286 36.4192 174.112 35.743 174.922 34.9677C175.732 34.1925 176.443 33.4338 177.038 32.7245C177.633 32.0153 178.046 31.5205 178.228 31.2566L178.873 31.7514C178.542 32.0978 178.046 32.6586 177.402 33.3843C176.757 34.11 176.013 34.8853 175.187 35.6935C174.36 36.5017 173.517 37.1615 172.658 37.7223C171.798 38.2831 170.988 38.5635 170.211 38.5635C170.029 38.5635 169.864 38.5635 169.715 38.5635C169.566 38.5635 169.401 38.547 169.236 38.514C168.31 40.5593 166.938 41.9778 165.12 42.753C163.302 43.5282 161.252 43.9241 158.971 43.9241V43.9571Z" fill="#A32836"/>
<path id="Vector_9" d="M176.591 43.3303C175.384 43.3303 174.426 43.1158 173.682 42.6705C172.938 42.2251 172.574 41.6314 172.574 40.8891C172.574 40.2953 172.723 39.6191 173.021 38.8438C173.318 38.0686 173.88 37.046 174.723 35.7924C175.566 34.5389 176.789 32.8894 178.393 30.8771C179.996 28.8649 182.112 26.3248 184.74 23.2733C184.922 23.2898 185.335 23.3063 186.013 23.3393C186.691 23.3723 187.203 23.3723 187.584 23.3723C187.914 23.3723 188.162 23.3723 188.344 23.3723C188.526 23.3723 188.675 23.3558 188.84 23.3228C185.964 26.7041 183.616 29.4916 181.781 31.6689C179.947 33.8461 178.558 35.5945 177.566 36.8975C176.574 38.2006 175.897 39.1902 175.533 39.883C175.169 40.5757 174.971 41.12 174.971 41.5324C174.971 42.0437 175.252 42.3406 175.798 42.4231C176.343 42.5055 176.789 42.5385 177.12 42.5385C178.178 42.5385 179.352 42.1757 180.608 41.4664C181.864 40.7572 183.12 39.85 184.377 38.7779C185.633 37.7057 186.79 36.6171 187.865 35.512C188.939 34.4069 189.815 33.4667 190.509 32.6585C191.204 31.8503 191.6 31.405 191.716 31.2895L192.311 31.8173C192.096 32.0482 191.617 32.5925 190.89 33.4337C190.162 34.275 189.253 35.2646 188.162 36.3697C187.071 37.4748 185.897 38.5634 184.592 39.6356C183.286 40.7077 181.963 41.5819 180.608 42.2911C179.252 43.0004 177.897 43.3468 176.608 43.3468L176.591 43.3303ZM191.7 17.4344C191.154 17.4344 190.708 17.2695 190.377 16.9231C190.047 16.5767 189.881 16.1478 189.881 15.6035C189.881 14.9108 190.179 14.284 190.757 13.7067C191.336 13.1294 192.03 12.8325 192.84 12.8325C193.386 12.8325 193.832 13.014 194.163 13.3768C194.493 13.7397 194.658 14.185 194.658 14.6964C194.658 15.4221 194.344 16.0654 193.733 16.6097C193.121 17.154 192.443 17.4344 191.7 17.4344Z" fill="#A32836"/>
<path id="Vector_10" d="M193.832 43.4624C191.898 43.4624 190.526 42.9676 189.699 41.9614C188.873 40.9553 188.443 39.7347 188.393 38.2667C188.377 37.2111 188.592 36.0235 189.038 34.7205C189.484 33.4174 189.964 32.4278 190.46 31.735C191.914 29.7062 193.501 28.0568 195.187 26.7868C196.873 25.5167 198.543 24.5765 200.163 23.9663C201.783 23.356 203.221 23.0591 204.461 23.0591C205.7 23.0591 206.51 23.257 206.99 23.6529C207.469 24.0487 207.717 24.4941 207.75 25.0054C207.816 25.7806 207.403 26.6548 206.527 27.6775C205.651 28.7001 204.114 29.7887 201.932 30.9598C199.75 32.1309 196.692 33.3844 192.774 34.671C192.08 35.7761 191.617 36.7163 191.385 37.5245C191.154 38.3327 191.038 39.0419 191.038 39.6687C191.038 40.5924 191.352 41.3181 191.964 41.8295C192.576 42.3408 193.319 42.6047 194.162 42.6047C196.014 42.6047 197.75 42.2583 199.386 41.5656C201.022 40.8728 202.494 39.9821 203.849 38.9265C205.205 37.8709 206.395 36.7822 207.42 35.6936C208.444 34.605 209.288 33.6483 209.932 32.8401C210.577 32.0319 211.023 31.5206 211.238 31.3227L211.866 31.8175C211.569 32.0814 211.073 32.6257 210.378 33.4999C209.684 34.3741 208.792 35.3637 207.717 36.4853C206.643 37.6069 205.403 38.6956 204.014 39.7677C202.626 40.8398 201.056 41.714 199.353 42.4232C197.65 43.1325 195.815 43.4789 193.865 43.4789L193.832 43.4624ZM193.452 33.6648C197.27 32.3288 200.295 30.9433 202.494 29.5248C204.692 28.1063 205.8 26.7373 205.8 25.4342C205.8 24.3291 205.287 23.7848 204.262 23.7848C202.94 23.7848 201.518 24.4941 199.981 25.9126C198.444 27.3311 196.642 29.3764 194.592 32.0814C194.162 32.6257 193.782 33.17 193.435 33.6813L193.452 33.6648Z" fill="#A32836"/>
<path id="Vector_11" d="M215.95 43.3301C214.842 43.3301 213.95 43.0497 213.255 42.4889C212.561 41.9281 212.214 41.2024 212.214 40.2952C212.214 38.7282 213.371 36.8314 215.669 34.6047C217.967 32.378 221.107 29.9533 225.041 27.3143C223.025 26.9844 221.306 26.638 219.851 26.3081C218.396 25.9782 217.239 25.6154 216.38 25.2195C215.983 26.0112 215.421 26.9679 214.661 28.106C213.9 29.2441 212.958 30.4812 211.801 31.8007C211.007 32.7244 210.429 33.3676 210.032 33.747C209.635 34.1264 209.371 34.3408 209.222 34.4068C209.073 34.4728 208.991 34.5222 208.974 34.5717C208.908 34.5882 208.875 34.5387 208.875 34.3903C208.875 34.2418 208.875 34.1429 208.875 34.0604C208.875 33.9779 209.024 33.7965 209.321 33.4996C209.619 33.2027 210.23 32.4605 211.189 31.2894C212.181 30.0523 213.057 28.8647 213.818 27.7431C214.578 26.6215 215.173 25.6319 215.586 24.7907C214.875 24.3453 214.462 23.834 214.346 23.2897C214.181 22.3495 214.38 21.4918 214.908 20.7166C215.437 19.9414 216.132 19.562 216.975 19.562C218.016 19.562 218.545 20.0074 218.545 20.9145C218.545 21.3599 218.462 21.7557 218.281 22.0691C218.099 22.3825 217.933 22.6959 217.752 22.9763C217.405 23.3887 217.223 23.9165 217.223 24.5433C217.223 24.7412 217.57 24.9556 218.248 25.17C218.925 25.3845 219.768 25.6154 220.76 25.8133C221.752 26.0112 222.744 26.1927 223.703 26.3411C224.661 26.4896 225.422 26.5885 225.984 26.6215C226.364 26.638 226.595 26.704 226.678 26.8195C226.761 26.9349 226.81 27.0174 226.81 27.0669C226.81 27.2648 226.529 27.5947 225.951 28.04C224.86 28.8647 223.752 29.8709 222.612 31.042C221.471 32.213 220.396 33.4171 219.421 34.6707C218.446 35.9242 217.636 37.0953 217.024 38.2004C216.413 39.3055 216.115 40.2127 216.115 40.922C216.115 41.8456 216.495 42.3075 217.239 42.3075C218.198 42.3075 219.256 41.9776 220.396 41.3343C221.537 40.6911 222.694 39.8663 223.868 38.8932C225.041 37.92 226.149 36.8974 227.174 35.8418C228.199 34.7861 229.108 33.846 229.852 33.0048C230.596 32.1636 231.125 31.5863 231.422 31.2729L232.017 31.7677C231.587 32.1801 230.976 32.8398 230.166 33.7305C229.356 34.6212 228.43 35.6108 227.372 36.716C226.314 37.8211 225.157 38.8602 223.901 39.8499C222.645 40.8395 221.355 41.6807 220.016 42.324C218.677 42.9673 217.322 43.2971 215.966 43.2971L215.95 43.3301Z" fill="#A32836"/>
</g>
<defs>
<clipPath id="clip0_2120_11139">
<rect width="232" height="51" fill="white"/>
</clipPath>
</defs>
</svg>
