<svg width="500" height="110" viewBox="0 0 500 110" fill="none" xmlns="http://www.w3.org/2000/svg">
<g clip-path="url(#clip0_2120_11219)">
<path d="M20.2684 110C19.5218 110 18.4907 108.399 17.2108 105.233C15.9308 102.067 15.1842 98.0466 14.9709 93.2795C11.0955 92.7103 7.89562 91.1094 5.30018 88.4768C2.70474 85.8442 1.4248 82.1087 1.4248 77.3772C1.4248 72.2187 2.66919 66.8468 5.12241 61.297C7.57564 55.7472 10.8822 50.3397 14.9709 45.0389C10.1 43.936 6.47346 41.8726 4.05579 38.8487C1.63812 35.8248 0.464844 32.3384 0.464844 28.4606C0.464844 25.2944 1.63812 22.0214 4.02024 18.7129C6.40236 15.4043 9.63777 12.3448 13.7976 9.49878C17.9574 6.65272 22.6505 4.37588 27.9125 2.63267C33.1745 0.889461 38.7209 0.0356445 44.5518 0.0356445C45.9384 0.0356445 47.1472 0.142372 48.1783 0.32025C49.2093 0.498128 49.7071 0.782734 49.7071 1.10291C49.7071 1.4231 49.4227 1.60097 48.8894 1.60097C48.4272 1.60097 47.7872 1.5654 47.005 1.45867C46.2228 1.35194 45.2984 1.31637 44.2318 1.31637C40.0009 1.31637 35.4855 2.13461 30.7568 3.73551C26.0282 5.33642 21.5483 7.54211 17.3885 10.317C13.2287 13.0919 9.81554 16.2582 7.18454 19.8157C4.55355 23.3733 3.23805 27.1087 3.23805 31.0221C3.23805 33.7258 4.34023 36.2873 6.58013 38.6353C8.82003 40.9832 11.9843 42.6197 16.1441 43.5803C20.4817 38.2439 25.4237 33.1922 30.9702 28.425C36.5166 23.6579 42.383 19.4955 48.5338 15.8668C54.6847 12.2381 60.7999 9.39205 66.9152 7.29308C73.0305 5.19412 78.7903 4.16242 84.1945 4.16242C86.0077 4.16242 87.5365 4.51818 88.7454 5.22969C89.9542 5.94121 90.5586 7.15078 90.5586 8.89399C90.5586 11.7756 89.2076 14.8707 86.5055 18.1081C83.8034 21.3455 80.1413 24.5829 75.5548 27.7135C70.9684 30.8442 65.8486 33.7258 60.16 36.3584C54.4713 38.991 48.6405 41.1256 42.5963 42.8332C36.5521 44.5408 30.8279 45.4658 25.3526 45.7148C19.664 51.9406 14.9709 58.0952 11.2733 64.1074C7.57564 70.1197 5.69128 75.3494 5.69128 79.7607C5.69128 83.1049 6.54457 85.7374 8.21561 87.6941C9.88665 89.6508 12.1621 90.8959 14.9709 91.4651C14.9709 85.6663 16.0375 80.0809 18.1707 74.709C20.304 69.3371 23.1838 64.5343 26.7748 60.3364C30.3657 56.1385 34.4189 52.7944 38.8987 50.3397C43.3785 47.8849 47.965 46.6754 52.6581 46.6754C56.2135 46.6754 58.9511 47.4936 60.8355 49.1301C62.7198 50.7666 63.6798 52.9011 63.6798 55.6049C63.6798 59.2691 62.5065 63.2536 60.1955 67.5939C57.8845 71.9341 54.6135 76.0609 50.4182 80.0098C46.2228 83.9587 41.3875 87.1605 35.841 89.6863C30.2946 92.2122 24.3571 93.4574 17.9574 93.4574C17.4596 93.4574 17.0686 93.4574 16.8197 93.3862C16.8908 95.6631 17.2108 98.3668 17.7441 101.497C18.2774 104.628 19.2018 107.083 20.5884 108.862C20.7662 109.075 20.8373 109.253 20.8373 109.36V109.68C20.8373 109.893 20.6595 110 20.2684 110ZM18.6685 91.7853C22.1172 91.7853 25.6371 90.8604 29.2991 88.9748C32.9612 87.0893 36.481 84.6702 39.8586 81.6818C43.2363 78.6935 46.2939 75.4561 49.0316 72.0052C51.7692 68.5544 53.9025 65.1747 55.5024 61.8662C57.1023 58.5576 57.8845 55.7116 57.8845 53.328C57.8845 50.0195 55.929 48.3474 52.0181 48.3474C48.4272 48.3474 44.5873 49.4503 40.4986 51.6915C36.4099 53.9328 32.6056 56.9923 29.0147 60.9412C25.4237 64.8901 22.5083 69.4794 20.2329 74.709C17.9574 79.9386 16.8197 85.5951 16.8197 91.6074V91.6786C17.1041 91.7142 17.4241 91.7497 17.7441 91.7497H18.6685V91.7853ZM26.9526 44.0072C31.6101 43.5447 36.7299 42.3707 42.2763 40.5208C47.8227 38.6708 53.3692 36.394 58.8445 33.7258C64.3198 31.0576 69.3684 28.2116 73.9193 25.1876C78.4703 22.1637 82.1323 19.2465 84.9055 16.436C87.6787 13.6256 89.0298 11.1708 89.0298 9.07187C89.0298 7.82672 88.5676 6.9729 87.6787 6.47484C86.7899 5.97678 85.5811 5.72775 84.0878 5.72775C80.959 5.72775 77.0837 6.79502 72.4972 8.89399C67.9107 10.993 63.0043 13.8746 57.7423 17.4677C52.4803 21.0609 47.2183 25.1876 41.9208 29.7413C36.6232 34.295 31.6457 39.0622 26.9881 44.0428L26.9526 44.0072Z" fill="#8E0000"/>
<path d="M74.0252 93.4574C70.4698 93.4574 67.8388 92.6392 66.1322 91.0027C64.4256 89.3662 63.4657 87.374 63.2879 84.9904C63.1457 82.1088 63.7501 79.0137 65.1011 75.7052C66.4522 72.3966 67.8744 69.6217 69.4743 67.3805C71.5364 64.4633 74.0608 61.6528 77.0473 58.949C80.0338 56.2453 83.2692 54.0396 86.8246 52.332C90.38 50.6243 94.0065 49.7705 97.7397 49.7705C99.9796 49.7705 101.935 50.3397 103.571 51.5137C105.206 52.6877 106.095 54.5376 106.273 57.0991C106.486 60.6922 105.775 64.4988 104.175 68.4477C102.575 72.3966 100.371 76.0965 97.633 79.4762C97.9175 80.7213 98.8774 81.3261 100.477 81.3261C102.077 81.3261 103.748 80.6858 105.633 79.4406C107.517 78.1955 109.295 76.7013 111.072 75.0292C112.85 73.3572 114.343 71.7563 115.623 70.3333C116.903 68.9102 117.757 67.9497 118.183 67.5228L119.57 68.59C118.752 69.3371 117.614 70.5467 116.121 72.112C114.628 73.6774 112.992 75.3494 111.179 77.0215C109.366 78.6935 107.517 80.1166 105.633 81.3261C103.748 82.5357 101.971 83.1049 100.335 83.1049C98.3086 83.1049 96.922 82.4646 96.2109 81.1838C93.0821 84.7414 89.5267 87.6942 85.6158 90.0066C81.7049 92.319 77.8295 93.4574 74.0608 93.4574H74.0252ZM75.6962 91.5364C77.1895 91.5364 78.8961 91.1095 80.8516 90.2556C82.807 89.4018 84.7625 88.299 86.718 86.8759C89.9889 84.5279 92.9399 81.8242 95.5709 78.658V78.4089C95.5709 75.7763 96.2464 73.6774 97.633 72.1476C99.0196 70.6179 100.371 69.6217 101.686 69.1948C103.748 64.8546 104.708 60.9768 104.495 57.5616C104.353 55.4982 103.819 54.0396 102.859 53.2213C101.9 52.4031 100.868 52.0118 99.6952 52.0118C97.2419 52.0118 94.2199 53.4704 90.6289 56.3876C87.0379 59.3048 83.0559 63.4671 78.6472 68.9458C75.5185 72.8947 73.3141 76.2032 72.0697 78.9426C70.8253 81.6819 70.292 83.9943 70.4342 86.0221C70.4342 87.1605 70.8253 88.3701 71.6075 89.6508C72.3897 90.9316 73.7763 91.5719 75.6962 91.5719V91.5364Z" fill="#8E0000"/>
<path d="M115.019 93.4572C112.246 93.4572 110.291 92.7812 109.117 91.4293C107.944 90.0775 107.304 88.6189 107.269 87.0535C107.091 83.9229 108.264 80.5076 110.788 76.8077C113.313 73.1079 116.939 68.5186 121.632 63.0044C123.303 61.0477 125.01 58.9487 126.823 56.7075C128.636 54.4662 130.485 52.2605 132.441 50.1616C133.898 50.4106 135.569 50.5529 137.525 50.5529C138.129 50.5529 138.947 50.5529 140.014 50.4817C141.08 50.4106 141.756 50.4106 142.111 50.3394C138.52 54.2172 134.894 58.2728 131.303 62.5419C127.712 66.811 124.477 70.7243 121.632 74.1751C120.708 75.3136 119.499 76.7366 118.006 78.4798C116.513 80.223 115.233 82.0374 114.095 83.9584C112.957 85.8795 112.424 87.765 112.459 89.5794C112.459 90.1842 112.673 90.7178 113.099 91.1803C113.526 91.6428 114.344 91.8918 115.517 91.8918C116.37 91.8918 117.686 91.6072 119.499 91.0736C121.312 90.5399 123.232 89.5794 125.259 88.2631C128.103 86.342 131.339 83.745 134.93 80.4009C138.52 77.0568 142.467 72.7877 146.698 67.5225C147.622 66.3841 148.404 65.4591 148.973 64.712C149.542 63.9649 150.111 63.3246 150.644 62.7553C152.138 60.941 153.738 58.9843 155.48 56.8854C157.222 54.7864 159.106 52.5451 161.133 50.126C162.484 50.2683 163.444 50.3394 163.977 50.4106C164.51 50.4817 165.257 50.5173 166.217 50.5173C168.208 50.5173 169.737 50.4462 170.803 50.3394C168.315 53.0432 165.435 56.3517 162.235 60.1939C159.035 64.0361 155.871 67.9138 152.742 71.7916C149.613 75.6693 146.84 79.0846 144.458 82.0018C142.431 84.3854 141.151 85.9863 140.618 86.8757C140.085 87.765 139.836 88.5833 139.836 89.4015C139.872 89.8996 140.049 90.4332 140.369 90.9313C140.689 91.4293 141.614 91.6784 143.142 91.6784C145.382 91.6784 147.836 90.9313 150.502 89.4371C153.169 87.9429 155.764 86.093 158.395 83.8517C161.026 81.6105 163.444 79.3336 165.719 77.0212C167.995 74.7088 169.915 72.6454 171.479 70.8666C173.043 69.0878 174.074 67.9494 174.537 67.4869L175.817 68.5542C175.319 69.1234 174.252 70.2974 172.617 72.1117C170.981 73.9261 168.99 76.0606 166.608 78.4442C164.226 80.8278 161.666 83.1758 158.928 85.4882C156.191 87.8006 153.418 89.6861 150.644 91.1803C147.871 92.6745 145.205 93.4216 142.751 93.4216C141.045 93.4216 139.623 92.9591 138.485 91.9986C137.347 91.038 136.743 89.7217 136.707 88.0141C136.672 86.4843 136.885 84.8834 137.383 83.2469C137.88 81.6105 138.698 79.7249 139.907 77.6616C134.61 83.3892 129.845 87.516 125.65 90.0775C123.481 91.3938 121.526 92.2832 119.748 92.7456C117.97 93.2081 116.406 93.4572 115.09 93.4572H115.019Z" fill="#8E0000"/>
<path d="M184.599 93.4574C182.217 93.4574 180.297 92.8526 178.804 91.6431C177.31 90.4335 176.564 88.8682 176.564 86.9115C176.564 83.5318 179.053 79.4406 183.995 74.6379C188.937 69.8352 195.692 64.6055 204.154 58.9134C199.816 58.2019 196.118 57.4548 192.99 56.7433C189.861 56.0318 187.372 55.2491 185.523 54.3953C184.67 56.103 183.461 58.1664 181.826 60.6211C180.19 63.0758 178.164 65.744 175.675 68.59C173.968 70.5823 172.724 71.9697 171.871 72.788C171.017 73.6062 170.448 74.0687 170.128 74.211C169.808 74.3533 169.631 74.46 169.595 74.5667C169.453 74.6023 169.382 74.4956 169.382 74.1754C169.382 73.8552 169.382 73.6418 169.382 73.4639C169.382 73.286 169.702 72.8947 170.342 72.2543C170.982 71.614 172.297 70.0131 174.359 67.4872C176.493 64.819 178.377 62.2576 180.012 59.8384C181.648 57.4193 182.928 55.2847 183.817 53.4704C182.288 52.5098 181.399 51.407 181.15 50.233C180.795 48.2052 181.221 46.3552 182.359 44.6832C183.497 43.0111 184.99 42.1929 186.803 42.1929C189.043 42.1929 190.181 43.1534 190.181 45.1101C190.181 46.0706 190.003 46.9244 189.612 47.6004C189.221 48.2763 188.865 48.9523 188.474 49.557C187.728 50.4464 187.337 51.5849 187.337 52.9367C187.337 53.3636 188.083 53.8261 189.541 54.2886C190.999 54.7511 192.812 55.2491 194.945 55.6761C197.078 56.103 199.212 56.4943 201.274 56.8145C203.336 57.1347 204.971 57.3481 206.18 57.4193C206.998 57.4548 207.496 57.5971 207.673 57.8462C207.851 58.0952 207.958 58.2731 207.958 58.3798C207.958 58.8067 207.353 59.5182 206.109 60.4788C203.763 62.2576 201.38 64.4277 198.927 66.9535C196.474 69.4794 194.163 72.0764 192.065 74.7802C189.968 77.4839 188.225 80.0098 186.91 82.3934C185.594 84.777 184.954 86.7336 184.954 88.2634C184.954 90.2556 185.772 91.2517 187.372 91.2517C189.434 91.2517 191.71 90.5402 194.163 89.1528C196.616 87.7653 199.105 85.9865 201.629 83.8876C204.154 81.7886 206.536 79.5829 208.74 77.3061C210.944 75.0292 212.9 73.0014 214.5 71.1871C216.1 69.3727 217.237 68.1275 217.877 67.4516L219.157 68.5189C218.233 69.4083 216.917 70.8313 215.175 72.7524C213.433 74.6735 211.442 76.808 209.167 79.1916C206.891 81.5751 204.402 83.8164 201.7 85.951C198.998 88.0855 196.225 89.8999 193.345 91.2873C190.465 92.6748 187.55 93.3863 184.634 93.3863L184.599 93.4574Z" fill="#8E0000"/>
<path d="M213.078 93.4575C208.313 93.4575 205.967 91.7143 205.967 88.1923C205.967 86.6625 206.251 85.0972 206.856 83.5319C207.46 81.9665 208.633 79.8676 210.375 77.3417C212.118 74.8158 214.749 71.3294 218.233 66.9536C220.082 64.57 222.393 61.973 225.13 59.1981C227.868 56.4232 230.855 53.3993 234.054 50.1619C235.405 50.3042 236.401 50.3753 237.041 50.4465C237.681 50.5176 238.499 50.5532 239.459 50.5532C241.379 50.5532 242.907 50.4821 244.045 50.3753C241.13 53.0079 238.783 55.2492 237.005 57.0991C235.228 58.9491 233.663 60.6923 232.206 62.3643C230.748 64.0364 229.041 65.9219 227.05 68.0564C225.984 69.1593 224.562 70.6535 222.713 72.5034C220.864 74.3533 219.051 76.3456 217.131 78.4445C215.211 80.5435 213.646 82.5357 212.331 84.3857C211.015 86.2356 210.375 87.7654 210.375 88.9038C210.375 90.2912 210.695 91.1451 211.371 91.4297C212.047 91.7143 212.9 91.8566 213.931 91.8566C217.06 91.8566 220.473 91.0028 224.099 89.3307C227.726 87.6586 231.423 85.4885 235.086 82.8559C238.748 80.2233 242.267 77.4484 245.503 74.6024C248.596 71.8275 250.871 69.3372 252.365 67.0603C253.858 64.7835 254.818 62.5778 255.28 60.4077C255.742 58.2376 255.991 55.9607 255.991 53.6127C255.991 52.0474 256.489 50.7667 257.449 49.7705C258.409 48.7744 259.618 48.2764 261.004 48.2764C263.386 48.2764 264.56 49.4504 264.56 51.7628C264.56 52.9368 264.24 54.3954 263.635 56.1386C263.031 57.8818 261.787 59.9452 259.973 62.3999C258.16 64.8546 255.458 67.843 251.903 71.2938L250.196 72.8947C248.738 74.8514 247.885 76.7013 247.6 78.4801C247.316 80.2589 248.312 81.1127 250.587 81.1127C252.045 81.1127 253.645 80.5791 255.458 79.5474C257.271 78.5157 259.049 77.235 260.827 75.7408C262.604 74.2466 264.24 72.7169 265.769 71.2227C267.297 69.7285 268.435 68.4834 269.217 67.5584L270.568 68.6257C269.182 70.1554 267.297 72.0409 264.951 74.2466C262.604 76.4523 260.115 78.4445 257.484 80.1166C254.853 81.7887 252.4 82.678 250.125 82.678C248.063 82.678 246.747 82.0733 246.214 80.8281C245.681 79.583 245.894 77.9821 246.818 75.9187C243.69 78.5513 240.134 81.2194 236.152 83.9232C232.17 86.6269 228.152 88.9038 224.099 90.7182C220.046 92.5325 216.384 93.4575 213.078 93.4575Z" fill="#8E0000"/>
<path d="M272.986 93.4574C269.431 93.4574 266.8 92.6392 265.093 91.0027C263.387 89.3662 262.427 87.374 262.249 84.9904C262.107 82.1088 262.711 79.0137 264.062 75.7052C265.413 72.3966 266.835 69.6217 268.435 67.3805C270.497 64.4633 273.022 61.6528 276.008 58.949C278.995 56.2453 282.23 54.0396 285.786 52.332C289.341 50.6243 292.967 49.7705 296.701 49.7705C298.941 49.7705 300.896 50.3397 302.531 51.5137C304.167 52.6877 305.056 54.5376 305.234 57.0991C305.447 60.6922 304.736 64.4988 303.136 68.4477C301.536 72.3966 299.332 76.0965 296.594 79.4762C296.878 80.7213 297.838 81.3261 299.438 81.3261C301.038 81.3261 302.709 80.6858 304.594 79.4406C306.478 78.1955 308.256 76.7013 310.033 75.0292C311.811 73.3572 313.304 71.7563 314.584 70.3333C315.864 68.9102 316.717 67.9497 317.144 67.5228L318.531 68.59C317.713 69.3371 316.575 70.5467 315.082 72.112C313.589 73.6774 311.953 75.3494 310.14 77.0215C308.327 78.6935 306.478 80.1166 304.594 81.3261C302.709 82.5357 300.932 83.1049 299.296 83.1049C297.269 83.1049 295.883 82.4646 295.172 81.1838C292.043 84.7414 288.488 87.6942 284.577 90.0066C280.666 92.319 276.79 93.4574 273.022 93.4574H272.986ZM274.657 91.5364C276.15 91.5364 277.857 91.1095 279.812 90.2556C281.768 89.4018 283.723 88.299 285.679 86.8759C288.95 84.5279 291.901 81.8242 294.532 78.658V78.4089C294.532 75.7763 295.207 73.6774 296.594 72.1476C297.981 70.6179 299.332 69.6217 300.647 69.1948C302.709 64.8546 303.669 60.9768 303.456 57.5616C303.314 55.4982 302.78 54.0396 301.82 53.2213C300.86 52.4031 299.829 52.0118 298.656 52.0118C296.203 52.0118 293.181 53.4704 289.59 56.3876C285.999 59.3048 282.017 63.4671 277.608 68.9458C274.479 72.8947 272.275 76.2032 271.031 78.9426C269.786 81.6819 269.253 83.9943 269.395 86.0221C269.395 87.1605 269.786 88.3701 270.568 89.6508C271.351 90.9316 272.737 91.5719 274.657 91.5719V91.5364Z" fill="#8E0000"/>
<path d="M313.553 93.4572C310.957 93.4572 308.895 92.9947 307.295 92.0341C305.695 91.0736 304.913 89.7929 304.913 88.192C304.913 86.9112 305.233 85.4526 305.873 83.7806C306.513 82.1085 307.722 79.9028 309.535 77.1991C311.348 74.4953 313.979 70.9378 317.428 66.5975C320.877 62.2573 325.428 56.7786 331.081 50.1971C331.472 50.2327 332.361 50.2683 333.818 50.3394C335.276 50.4106 336.378 50.4106 337.196 50.4106C337.907 50.4106 338.44 50.4106 338.832 50.4106C339.223 50.4106 339.543 50.375 339.898 50.3039C333.712 57.5969 328.663 63.6092 324.717 68.3052C320.77 73.0012 317.784 76.7722 315.65 79.5827C313.517 82.3931 312.059 84.5277 311.277 86.0219C310.495 87.516 310.068 88.69 310.068 89.5794C310.068 90.6823 310.673 91.3226 311.846 91.5005C313.019 91.6784 313.979 91.7495 314.69 91.7495C316.966 91.7495 319.49 90.9669 322.192 89.4371C324.894 87.9074 327.597 85.9507 330.299 83.6383C333.001 81.3259 335.49 78.9779 337.801 76.5943C340.112 74.2107 341.996 72.1829 343.489 70.4397C344.982 68.6965 345.836 67.7359 346.085 67.4869L347.365 68.6253C346.902 69.1234 345.871 70.2974 344.307 72.1118C342.742 73.9261 340.787 76.0607 338.44 78.4442C336.094 80.8278 333.57 83.1758 330.761 85.4882C327.952 87.8006 325.108 89.6861 322.192 91.2159C319.277 92.7457 316.361 93.4927 313.588 93.4927L313.553 93.4572ZM346.049 37.6033C344.876 37.6033 343.916 37.2476 343.205 36.5005C342.494 35.7534 342.138 34.8284 342.138 33.6544C342.138 32.1603 342.778 30.8084 344.022 29.5632C345.267 28.3181 346.76 27.6777 348.502 27.6777C349.676 27.6777 350.635 28.0691 351.347 28.8517C352.058 29.6344 352.413 30.5949 352.413 31.6978C352.413 33.2631 351.738 34.6506 350.422 35.8246C349.107 36.9986 347.649 37.6033 346.049 37.6033Z" fill="#8E0000"/>
<path d="M342.422 94.8091C341.107 94.8091 339.4 94.6312 337.338 94.311C335.276 93.9909 333.391 93.2438 331.756 92.1409C330.12 91.0381 329.303 89.3304 329.303 86.9824C329.303 84.8479 329.943 83.1047 331.258 81.7172C332.574 80.3298 333.996 79.2981 335.56 78.6222C337.125 77.9462 338.298 77.5905 339.045 77.5905C340.787 77.5905 341.64 78.4087 341.64 80.0096C341.604 80.6855 341.107 81.3259 340.218 81.8951C339.329 82.4643 338.298 82.7489 337.196 82.7489C336.698 82.7489 336.2 82.5711 335.702 82.2153C335.205 81.8595 334.814 81.5749 334.529 81.4326C334.067 81.8951 333.356 82.5711 332.396 83.496C331.436 84.421 330.974 85.595 330.974 87.018C330.974 88.6189 331.614 89.8285 332.929 90.6112C334.245 91.3938 335.667 91.8919 337.302 92.1409C338.938 92.3899 340.147 92.4967 341 92.4967C342.778 92.4967 345.018 91.7852 347.684 90.3621C350.351 88.9391 352.839 86.5555 355.15 83.2114C357.461 79.8673 358.955 75.3136 359.63 69.5148C359.844 67.487 360.057 64.6409 360.235 61.0478C360.412 57.4546 361.088 53.9682 362.226 50.6597C362.261 50.5174 362.297 50.3395 362.297 50.0905C360.697 52.0827 358.955 54.2172 357.07 56.5297C355.186 58.8421 353.408 61.0122 351.702 63.1467C349.995 65.2813 348.502 67.0601 347.293 68.5542C346.44 69.5859 345.835 70.2263 345.444 70.5109C345.053 70.7955 344.875 70.9734 344.946 70.9734C344.911 70.9734 344.733 70.9734 344.484 70.9734C344.235 70.9734 343.987 70.8667 343.809 70.5465C343.738 70.333 343.915 69.9417 344.413 69.3369C344.911 68.7321 345.409 68.0918 345.978 67.4158C346.937 66.313 348.466 64.5698 350.493 62.1506C352.519 59.7315 354.688 57.1344 356.964 54.3951C359.239 51.6558 361.195 49.2011 362.83 47.0665C363.079 45.7858 363.47 44.6474 363.968 43.6157C364.466 42.584 365.212 42.0859 366.137 42.0859C367.843 42.0859 368.697 42.7975 368.697 44.1849C368.661 45.0031 367.665 46.4973 365.781 48.703C364.643 50.0549 364.039 50.9443 363.932 51.3356C363.826 51.7269 363.79 52.2606 363.79 52.9009C363.755 54.4307 363.897 56.3162 364.252 58.5931C364.608 60.8699 364.999 63.2535 365.426 65.7082C365.852 68.1629 366.137 70.5465 366.243 72.7877C366.386 76.1319 365.994 79.0491 365.106 81.5038C365.781 81.5749 366.35 81.6461 366.812 81.6461C368.163 81.6461 369.728 81.0413 371.47 79.7962C373.212 78.551 374.99 77.0924 376.732 75.4204C378.474 73.7483 380.003 72.1118 381.283 70.5821C382.563 69.0523 383.451 67.985 383.843 67.4158L385.229 68.4831C384.518 69.2302 383.451 70.4398 382.065 72.0051C380.678 73.5704 379.078 75.2425 377.301 76.9857C375.523 78.7289 373.71 80.1519 371.861 81.3615C370.012 82.5711 368.27 83.1758 366.599 83.1758C366.208 83.1758 365.852 83.1758 365.532 83.1758C365.212 83.1758 364.857 83.1403 364.501 83.0691C362.51 87.4805 359.559 90.54 355.648 92.2121C351.737 93.8841 347.329 94.7379 342.422 94.7379V94.8091Z" fill="#8E0000"/>
<path d="M380.323 93.4572C377.728 93.4572 375.666 92.9947 374.066 92.0341C372.466 91.0736 371.684 89.7929 371.684 88.192C371.684 86.9112 372.004 85.4526 372.644 83.7806C373.284 82.1085 374.492 79.9028 376.306 77.1991C378.119 74.4953 380.75 70.9378 384.199 66.5975C387.647 62.2573 392.198 56.7786 397.851 50.1971C398.242 50.2327 399.131 50.2683 400.589 50.3394C402.047 50.4106 403.149 50.4106 403.967 50.4106C404.678 50.4106 405.211 50.4106 405.602 50.4106C405.993 50.4106 406.313 50.375 406.669 50.3039C400.482 57.5969 395.434 63.6092 391.487 68.3052C387.541 73.0012 384.554 76.7722 382.421 79.5827C380.288 82.3931 378.83 84.5277 378.048 86.0219C377.266 87.516 376.839 88.69 376.839 89.5794C376.839 90.6823 377.443 91.3226 378.617 91.5005C379.79 91.6784 380.75 91.7495 381.461 91.7495C383.736 91.7495 386.261 90.9669 388.963 89.4371C391.665 87.9074 394.367 85.9507 397.069 83.6383C399.771 81.3259 402.26 78.9779 404.571 76.5943C406.882 74.2107 408.766 72.1829 410.26 70.4397C411.753 68.6965 412.606 67.7359 412.855 67.4869L414.135 68.6253C413.673 69.1234 412.642 70.2974 411.077 72.1118C409.513 73.9261 407.558 76.0607 405.211 78.4442C402.864 80.8278 400.34 83.1758 397.531 85.4882C394.723 87.8006 391.878 89.6861 388.963 91.2159C386.047 92.7457 383.132 93.4927 380.359 93.4927L380.323 93.4572ZM412.82 37.6033C411.646 37.6033 410.686 37.2476 409.975 36.5005C409.264 35.7534 408.909 34.8284 408.909 33.6544C408.909 32.1603 409.549 30.8084 410.793 29.5632C412.037 28.3181 413.531 27.6777 415.273 27.6777C416.446 27.6777 417.406 28.0691 418.117 28.8517C418.828 29.6344 419.184 30.5949 419.184 31.6978C419.184 33.2631 418.508 34.6506 417.193 35.8246C415.877 36.9986 414.419 37.6033 412.82 37.6033Z" fill="#8E0000"/>
<path d="M417.406 93.742C413.246 93.742 410.295 92.6747 408.518 90.5046C406.74 88.3345 405.816 85.7019 405.709 82.5356C405.673 80.2588 406.136 77.6973 407.096 74.8869C408.055 72.0764 409.087 69.9418 410.153 68.4477C413.282 64.0719 416.695 60.5143 420.322 57.775C423.948 55.0356 427.539 53.0078 431.023 51.6915C434.508 50.3752 437.601 49.7349 440.267 49.7349C442.934 49.7349 444.676 50.1618 445.707 51.0156C446.738 51.8694 447.272 52.8299 447.343 53.9328C447.485 55.6049 446.596 57.4904 444.712 59.6961C442.827 61.9017 439.521 64.2497 434.828 66.7756C430.135 69.3015 423.557 72.0052 415.131 74.7801C413.637 77.1637 412.642 79.1915 412.144 80.9347C411.646 82.6779 411.398 84.2077 411.398 85.5596C411.398 87.5518 412.073 89.1171 413.389 90.22C414.704 91.3228 416.304 91.892 418.117 91.892C422.099 91.892 425.832 91.145 429.352 89.6508C432.872 88.1566 436.036 86.2355 438.952 83.9587C441.867 81.6818 444.427 79.3338 446.632 76.9858C448.836 74.6378 450.649 72.5744 452.036 70.8312C453.422 69.088 454.382 67.9852 454.845 67.5583L456.196 68.6256C455.556 69.1948 454.489 70.3688 452.996 72.2543C451.502 74.1398 449.583 76.2743 447.272 78.6935C444.961 81.1126 442.294 83.4606 439.307 85.773C436.321 88.0854 432.943 89.971 429.281 91.5007C425.619 93.0305 421.673 93.7776 417.477 93.7776L417.406 93.742ZM416.588 72.61C424.801 69.7284 431.308 66.74 436.036 63.6805C440.765 60.621 443.147 57.6682 443.147 54.8578C443.147 52.4742 442.045 51.3002 439.841 51.3002C436.996 51.3002 433.939 52.8299 430.632 55.8895C427.326 58.949 423.45 63.3604 419.042 69.1948C418.117 70.3688 417.3 71.5428 416.553 72.6456L416.588 72.61Z" fill="#8E0000"/>
<path d="M464.977 93.4574C462.595 93.4574 460.675 92.8526 459.182 91.6431C457.688 90.4335 456.942 88.8682 456.942 86.9115C456.942 83.5318 459.43 79.4406 464.372 74.6379C469.314 69.8352 476.07 64.6055 484.532 58.9134C480.194 58.2019 476.496 57.4548 473.368 56.7433C470.239 56.0318 467.75 55.2491 465.901 54.3953C465.048 56.103 463.839 58.1664 462.204 60.6211C460.568 63.0758 458.542 65.744 456.053 68.59C454.346 70.5823 453.102 71.9697 452.249 72.788C451.395 73.6062 450.826 74.0687 450.506 74.211C450.186 74.3533 450.009 74.46 449.973 74.5667C449.831 74.6023 449.76 74.4956 449.76 74.1754C449.76 73.8552 449.76 73.6418 449.76 73.4639C449.76 73.286 450.08 72.8947 450.72 72.2543C451.36 71.614 452.675 70.0131 454.737 67.4872C456.871 64.819 458.755 62.2576 460.39 59.8384C462.026 57.4193 463.306 55.2847 464.195 53.4704C462.666 52.5098 461.777 51.407 461.528 50.233C461.173 48.2052 461.599 46.3552 462.737 44.6832C463.875 43.0111 465.368 42.1929 467.181 42.1929C469.421 42.1929 470.559 43.1534 470.559 45.1101C470.559 46.0706 470.381 46.9244 469.99 47.6004C469.599 48.2763 469.243 48.9523 468.852 49.557C468.106 50.4464 467.715 51.5849 467.715 52.9367C467.715 53.3636 468.461 53.8261 469.919 54.2886C471.377 54.7511 473.19 55.2491 475.323 55.6761C477.456 56.103 479.59 56.4943 481.652 56.8145C483.714 57.1347 485.349 57.3481 486.558 57.4193C487.376 57.4548 487.874 57.5971 488.051 57.8462C488.229 58.0952 488.336 58.2731 488.336 58.3798C488.336 58.8067 487.731 59.5182 486.487 60.4788C484.14 62.2576 481.758 64.4277 479.305 66.9535C476.852 69.4794 474.541 72.0764 472.443 74.7802C470.346 77.4839 468.603 80.0098 467.288 82.3934C465.972 84.777 465.332 86.7336 465.332 88.2634C465.332 90.2556 466.15 91.2517 467.75 91.2517C469.812 91.2517 472.088 90.5402 474.541 89.1528C476.994 87.7653 479.483 85.9865 482.007 83.8876C484.532 81.7886 486.914 79.5829 489.118 77.3061C491.322 75.0292 493.278 73.0014 494.878 71.1871C496.478 69.3727 497.615 68.1275 498.255 67.4516L499.535 68.5189C498.611 69.4083 497.295 70.8313 495.553 72.7524C493.811 74.6735 491.82 76.808 489.545 79.1916C487.269 81.5751 484.78 83.8164 482.078 85.951C479.376 88.0855 476.603 89.8999 473.723 91.2873C470.843 92.6748 467.928 93.3863 465.012 93.3863L464.977 93.4574Z" fill="#8E0000"/>
</g>
<defs>
<clipPath id="clip0_2120_11219">
<rect width="499" height="110" fill="white" transform="translate(0.5)"/>
</clipPath>
</defs>
</svg>
